<?xml version="1.0" encoding="UTF-8"?>
<svg width="96px" height="90px" viewBox="0 0 96 90" version="1.1" xmlns="http://www.w3.org/2000/svg" xmlns:xlink="http://www.w3.org/1999/xlink">
    <!-- Generator: Sketch 52.6 (67491) - http://www.bohemiancoding.com/sketch -->
    <title>tx_bwguild_domain_model_offer.0</title>
    <desc>Created with Sketch.</desc>
    <g id="Page-1" stroke="none" stroke-width="1" fill="none" fill-rule="evenodd">
        <g id="tx_bwguild_domain_model_offer.0">
            <path d="M58.898,53.699 L58.898,54.49978 C58.898,60.49978 53.9996,65.39778 48,65.39778 C42.0004,65.39778 37.102,60.49938 37.102,54.49978 L37.102,53.699 L2.5,46.9998 C1.80078,46.89824 1.1016,46.69902 0.5,46.30058 L0.5,76.49958 C0.5,83.89798 6.5,89.89758 13.898,89.89758 L82.199,89.89758 C89.5974,89.89758 95.597,83.89758 95.597,76.49958 L95.600906,46.30058 C94.999346,46.60136 94.300106,46.80058 93.600906,46.9998 L58.898,53.699 Z" id="Path" fill="#616161"></path>
            <path d="M82.301,19.199 L70.102,19.199 L70.102,14.199 C70.102,6.4998 63.8012,0.199 56.102,0.199 L39.899,0.199 C32.1998,0.199 25.899,6.4998 25.899,14.199 L25.899,19.199 L13.7,19.199 C6.3992,19.199 0.501,25.0974 0.501,32.398 L0.501,37.9996 C0.501,39.8004 1.8018,41.3004 3.501,41.6988 L37.103,48.1988 C37.20456,42.3004 42.0014,37.5968 48.001,37.5968 C53.8994,37.5968 58.802,42.296 58.899,48.1988 L92.399,41.6988 C94.1998,41.30036 95.5006,39.8004 95.5006,37.9996 L95.5006,32.3004 C95.5006,25.1012 89.6022,19.1984 82.3016,19.1984 L82.301,19.199 Z M36.199,14.1013 C36.199,12.1013 37.8982,10.4997 39.8006,10.4997 L56.1016,10.4997 C58.1016,10.4997 59.7032,12.1989 59.7032,14.1013 L59.7032,19.1013 L36.199,19.1013 L36.199,14.1013 Z" id="Shape" fill="#616161" fill-rule="nonzero"></path>
            <path d="M53.5,54.5 L53.5,48.5 C53.5,45.5 51,43 48,43 C45,43 42.5,45.5 42.5,48.5 L42.5,54.5 C42.5,57.5 45,60 48,60 C51,60 53.5,57.5 53.5,54.5 Z" id="Path" fill="#3E9F38"></path>
        </g>
    </g>
</svg>