<?xml version="1.0" encoding="UTF-8"?>
<svg width="96px" height="96px" viewBox="0 0 96 96" version="1.1" xmlns="http://www.w3.org/2000/svg" xmlns:xlink="http://www.w3.org/1999/xlink">
    <!-- Generator: Sketch 52.6 (67491) - http://www.bohemiancoding.com/sketch -->
    <title>tx_bwguild_domain_model_offer.2</title>
    <desc>Created with Sketch.</desc>
    <g id="Page-1" stroke="none" stroke-width="1" fill="none" fill-rule="evenodd">
        <g id="tx_bwguild_domain_model_offer.2">
            <path d="M5.1875,33 C4.40625,30.8125 3.9375,28.3125 3.9375,25.8125 C3.9375,20.0313 6.2813,14.4065 10.3437,10.3435 C14.4061,6.2805 20.0312,3.9373 25.8127,3.9373 C28.3127,3.9373 30.6565,4.40605 33.0002,5.1873 L37.6877,3.7811 C34.0939,1.9061 30.0315,0.8123 25.9687,0.8123 C19.2499,0.8123 12.9997,3.4685 8.3127,8.1561 C3.6257,12.8437 0.9689,19.0941 0.9689,25.8121 C0.9689,30.0309 2.0627,33.9371 3.9377,37.5311 C4.2502,36.1249 4.71895,34.5623 5.1877,32.9999 L5.1875,33 Z" id="Path" fill="#616161"></path>
            <path d="M33,90.812 C30.8125,91.59325 28.3125,92.062 25.8125,92.062 C20.0313,92.062 14.4065,89.7182 10.3435,85.6558 C6.2805,81.5934 3.9373,75.9683 3.9373,70.1868 C3.9373,67.6868 4.40605,65.343 5.1873,62.9993 L3.7811,58.3118 C1.9061,61.9056 0.8123,65.968 0.8123,70.0308 C0.8123,76.7496 3.4685,82.9998 8.1561,87.6868 C12.8437,92.3738 19.0941,95.0306 25.8121,95.0306 C30.0309,95.0306 33.9371,93.9368 37.5311,92.0618 C36.1249,91.7493 34.5623,91.28055 32.9999,90.8118 L33,90.812 Z" id="Path" fill="#616161"></path>
            <path d="M92.062,58.312 C91.7495,59.8745 91.28075,61.437 90.6558,62.9995 C91.43705,65.187 91.9058,67.687 91.9058,70.187 C91.9058,75.9682 89.562,81.593 85.4996,85.656 C81.4372,89.719 75.8121,92.0622 70.0306,92.0622 C67.5306,92.0622 65.1868,91.59345 62.8431,90.8122 L58.1556,92.2184 C61.7494,94.0934 65.8118,95.1872 69.8746,95.1872 C76.5934,95.1872 82.8436,92.531 87.5306,87.8434 C92.2176,83.1558 94.8744,76.9054 94.8744,70.1874 C95.03065,65.9686 94.09315,61.9062 92.0619,58.3124 L92.062,58.312 Z" id="Path" fill="#616161"></path>
            <path d="M63,5.1875 C65.1875,4.40625 67.6875,3.9375 70.1875,3.9375 C75.9687,3.9375 81.5935,6.2813 85.6565,10.3437 C89.7195,14.4061 92.0627,20.0312 92.0627,25.8127 C92.0627,28.3127 91.59395,30.6565 90.8127,33.0002 L92.2189,37.6877 C94.0939,34.0939 95.1877,30.0315 95.1877,25.9687 C95.1877,19.2499 92.5315,12.9997 87.8439,8.3127 C83.1563,3.6257 76.9059,0.9689 70.1879,0.9689 C65.9691,0.9689 62.0629,2.0627 58.4689,3.9377 C59.8751,4.2502 61.4377,4.71895 63.0001,5.1877 L63,5.1875 Z" id="Path" fill="#616161"></path>
            <path d="M22.844,39.562 C25.5002,31.7495 31.7502,25.5 39.563,22.843 L35.0318,7.843 C22.2198,12.0618 12.0628,22.218 7.8438,35.031 L22.844,39.562 Z" id="Path" fill="#616161"></path>
            <path d="M42.531,22.062 C44.2498,21.7495 46.1248,21.437 47.9998,21.437 C49.8748,21.437 51.5936,21.59325 53.4686,22.062 L57.9998,7.062 C54.8748,6.28075 51.4373,5.812 47.9998,5.812 C44.5623,5.812 41.1248,6.28075 37.9998,7.062 L42.531,22.062 Z" id="Path" fill="#3E9F38"></path>
            <path d="M74.562,48 C74.562,49.875 74.40575,51.5938 73.937,53.4688 L88.937,58 C89.71825,54.7188 90.187,51.4375 90.187,48 C90.187,44.5625 89.71825,41.125 88.937,38 L73.937,42.5312 C74.40575,44.4062 74.562,46.125 74.562,48 Z" id="Path" fill="#3E9F38"></path>
            <path d="M56.438,22.844 C64.2505,25.5002 70.5,31.7502 73.157,39.563 L88.157,35.0318 C83.9382,22.2198 73.782,12.0628 60.969,7.8438 L56.438,22.844 Z" id="Path" fill="#616161"></path>
            <path d="M53.469,73.938 C51.594,74.40675 49.8752,74.563 48.0002,74.563 C46.1252,74.563 44.4064,74.40675 42.5314,73.938 L38.0002,88.938 C41.2814,89.71925 44.5627,90.188 48.0002,90.188 C51.4377,90.188 54.8752,89.71925 58.0002,88.938 L53.469,73.938 Z" id="Path" fill="#3E9F38"></path>
            <path d="M21.438,48 C21.438,46.125 21.59425,44.4062 22.063,42.5312 L7.063,38 C6.28175,41.125 5.813,44.5625 5.813,48 C5.813,51.4375 6.28175,54.875 7.063,58 L22.063,53.4688 C21.59425,51.5938 21.438,49.875 21.438,48 Z" id="Path" fill="#3E9F38"></path>
            <path d="M73.156,56.438 C70.4998,64.2505 64.2498,70.5 56.437,73.157 L60.9682,88.157 C73.7802,83.9382 83.9372,73.782 88.1562,60.969 L73.156,56.438 Z" id="Path" fill="#616161"></path>
            <path d="M39.562,73.156 C31.7495,70.4998 25.5,64.2498 22.843,56.437 L7.843,60.9682 C12.0618,73.7802 22.218,83.9372 35.031,88.1562 L39.562,73.156 Z" id="Path" fill="#616161"></path>
        </g>
    </g>
</svg>