<svg width="100%" height="100%" viewBox="0 0 24 24" version="1.1" xmlns="http://www.w3.org/2000/svg" xmlns:xlink="http://www.w3.org/1999/xlink" xml:space="preserve" xmlns:serif="http://www.serif.com/" style="fill-rule:evenodd;clip-rule:evenodd;stroke-linejoin:round;stroke-miterlimit:2;">
    <path d="M24,17.457L23.999,20.741C24.003,21.667 23.616,22.552 22.934,23.178C22.251,23.804 21.337,24.114 20.394,24.028C16.85,23.643 13.445,22.432 10.462,20.497C7.677,18.728 5.316,16.366 3.551,13.589C1.605,10.584 0.393,7.163 0.013,3.586C-0.07,2.666 0.237,1.754 0.86,1.072C1.483,0.39 2.363,0.001 3.286,0C3.287,0 3.287,0 3.287,0C3.287,0 6.577,0 6.566,0C8.217,-0.016 9.624,1.194 9.857,2.839C9.985,3.81 10.222,4.763 10.564,5.678C11.015,6.88 10.726,8.235 9.823,9.148L9.033,9.939C10.322,11.961 12.038,13.677 14.061,14.967L14.852,14.176C15.765,13.273 17.12,12.984 18.319,13.435C19.237,13.777 20.19,14.015 21.17,14.144C22.816,14.376 24.028,15.799 24,17.457ZM21.807,17.456L21.807,20.75C21.808,21.058 21.679,21.353 21.451,21.562C21.224,21.771 20.919,21.874 20.611,21.846C17.428,21.5 14.35,20.405 11.647,18.652C9.125,17.049 6.994,14.919 5.397,12.405C3.632,9.681 2.537,6.589 2.196,3.371C2.17,3.082 2.272,2.778 2.48,2.55C2.687,2.323 2.981,2.193 3.288,2.193L6.588,2.193C7.138,2.188 7.607,2.591 7.684,3.136C7.832,4.261 8.11,5.375 8.51,6.447C8.661,6.85 8.565,7.302 8.264,7.606C8.268,7.602 6.876,8.994 6.876,8.994C6.527,9.343 6.454,9.883 6.698,10.312C8.357,13.228 10.771,15.643 13.688,17.302C14.117,17.546 14.656,17.473 15.005,17.124L16.398,15.731C16.698,15.435 17.15,15.338 17.55,15.489C18.625,15.89 19.739,16.167 20.874,16.317C21.415,16.393 21.821,16.872 21.807,17.429L21.807,17.456Z"/>
</svg>
