<?xml version="1.0" encoding="utf-8"?>
<svg width="19.111084px" height="22px" viewBox="0 0 19.111084 22" version="1.1" xmlns:xlink="http://www.w3.org/1999/xlink" xmlns="http://www.w3.org/2000/svg">
  <g id="calendar" transform="translate(1 1)">
    <path d="M1.999 2L15.1121 2Q15.2103 2 15.308 2.00963Q15.4058 2.01925 15.5021 2.03841Q15.5984 2.05757 15.6924 2.08608Q15.7864 2.11458 15.8771 2.15216Q15.9678 2.18975 16.0544 2.23604Q16.141 2.28233 16.2227 2.33689Q16.3043 2.39145 16.3803 2.45375Q16.4562 2.51605 16.5256 2.58549Q16.5951 2.65493 16.6574 2.73085Q16.7197 2.80676 16.7742 2.88841Q16.8288 2.97007 16.8751 3.05668Q16.9214 3.14329 16.9589 3.23402Q16.9965 3.32474 17.025 3.41872Q17.0535 3.5127 17.0727 3.60901Q17.0919 3.70533 17.1015 3.80306Q17.1111 3.9008 17.1111 3.999L17.1111 18.001Q17.1111 18.0992 17.1015 18.1969Q17.0919 18.2947 17.0727 18.391Q17.0535 18.4873 17.025 18.5813Q16.9965 18.6753 16.9589 18.766Q16.9214 18.8567 16.8751 18.9433Q16.8288 19.0299 16.7742 19.1116Q16.7197 19.1932 16.6574 19.2692Q16.5951 19.3451 16.5256 19.4145Q16.4562 19.4839 16.3803 19.5462Q16.3043 19.6085 16.2227 19.6631Q16.141 19.7177 16.0544 19.764Q15.9678 19.8103 15.8771 19.8478Q15.7864 19.8854 15.6924 19.9139Q15.5984 19.9424 15.5021 19.9616Q15.4058 19.9807 15.308 19.9904Q15.2103 20 15.1121 20L1.999 20Q1.9008 20 1.80306 19.9904Q1.70533 19.9807 1.60901 19.9616Q1.5127 19.9424 1.41872 19.9139Q1.32474 19.8854 1.23402 19.8478Q1.14329 19.8103 1.05668 19.764Q0.970069 19.7177 0.888415 19.6631Q0.806761 19.6085 0.730848 19.5462Q0.654935 19.4839 0.585494 19.4145Q0.516052 19.3451 0.453752 19.2692Q0.391452 19.1932 0.336892 19.1116Q0.282333 19.0299 0.236039 18.9433Q0.189746 18.8567 0.152165 18.766Q0.114584 18.6753 0.0860763 18.5813Q0.057569 18.4873 0.0384102 18.391Q0.0192515 18.2947 0.00962573 18.1969Q0 18.0992 0 18.001L0 3.999Q0 3.9008 0.00962573 3.80306Q0.0192515 3.70533 0.0384102 3.60901Q0.057569 3.5127 0.0860763 3.41872Q0.114584 3.32474 0.152165 3.23402Q0.189746 3.14329 0.236039 3.05668Q0.282333 2.97007 0.336892 2.88841Q0.391452 2.80676 0.453752 2.73085Q0.516052 2.65493 0.585494 2.58549Q0.654935 2.51605 0.730848 2.45375Q0.806761 2.39145 0.888415 2.33689Q0.970069 2.28233 1.05668 2.23604Q1.14329 2.18975 1.23402 2.15216Q1.32474 2.11458 1.41872 2.08608Q1.5127 2.05757 1.60901 2.03841Q1.70533 2.01925 1.80306 2.00963Q1.9008 2 1.999 2L1.999 2Z" id="Rectangle" fill="none" fill-rule="evenodd" stroke="#000000" stroke-width="2" stroke-linecap="round" stroke-linejoin="round" />
    <path d="M12.3581 0L12.3581 4" id="Path" fill="none" fill-rule="evenodd" stroke="#000000" stroke-width="2" stroke-linecap="round" stroke-linejoin="round" />
    <path d="M4.75314 0L4.75314 4" id="Path" fill="none" fill-rule="evenodd" stroke="#000000" stroke-width="2" stroke-linecap="round" stroke-linejoin="round" />
    <path d="M0 8L17.1111 8" id="Path" fill="none" fill-rule="evenodd" stroke="#000000" stroke-width="2" stroke-linecap="round" stroke-linejoin="round" />
  </g>
</svg>