<?xml version="1.0" encoding="UTF-8"?>
<svg width="24px" height="24px" viewBox="0 0 24 24" version="1.1" xmlns="http://www.w3.org/2000/svg" xmlns:xlink="http://www.w3.org/1999/xlink">
    <title>You Tube</title>
    <defs>
        <polygon id="path-1" points="0 0 24 0 24 16.7998696 0 16.7998696"></polygon>
    </defs>
    <g id="Startseite" stroke="none" stroke-width="1" fill="none" fill-rule="evenodd">
        <g id="XS_DKFZ_Startseite-2" transform="translate(-307.000000, -8782.000000)">
            <g id="Group-42" transform="translate(0.000000, 8654.000000)">
                <g id="Social-Media" transform="translate(83.000000, 128.000000)">
                    <g id="You-Tube" transform="translate(224.000000, 0.000000)">
                        <rect id="Rectangle-Copy-27" x="0" y="0" width="24" height="24"></rect>
                        <g id="Group-3" transform="translate(0.000000, 3.600000)">
                            <mask id="mask-2" fill="white">
                                <use xlink:href="#path-1"></use>
                            </mask>
                            <g id="Clip-2"></g>
                            <path d="M12.0396779,-2.06167702e-05 C12.0527614,-1.29181852e-06 12.0689894,2.7695609e-05 12.0882351,7.11767503e-05 L12.4559395,0.00159784793 C14.110477,0.0110670743 19.783615,0.0746461653 21.3765014,0.501534348 C22.4091244,0.777519492 23.2224608,1.59065826 23.4984459,2.62328127 C23.9696399,4.38149 23.9981971,7.9341298 23.9999279,8.35829474 L23.9999279,8.44171107 C23.9981971,8.86585488 23.9696399,12.4183203 23.4984459,14.1765291 C23.2224608,15.2091521 22.4091244,16.0224884 21.3765014,16.2984736 C19.7039707,16.7465296 13.5329626,16.7941951 12.2389107,16.7992659 L11.7609313,16.7992659 C11.0830946,16.7966098 9.0671361,16.7822667 7.06050235,16.7048138 L6.51448215,16.682087 C4.88318926,16.6089805 3.34013943,16.4904976 2.62334053,16.2984736 C1.59071752,16.0224884 0.777381203,15.2091521 0.501396059,14.1765291 C0.0455814599,12.4750368 0.00414376909,9.09317913 0.000376706281,8.49235784 L0.000376706281,8.30764546 C0.00414376909,7.70679449 0.0455814599,4.32477359 0.501396059,2.62328127 C0.777381203,1.59065826 1.59071752,0.777519492 2.62334053,0.501534348 C3.34013943,0.309434666 4.88318926,0.190905075 6.51448215,0.117769795 L7.06050235,0.0950339894 C8.88471485,0.0245945405 10.7166337,0.0063324611 11.5439025,0.00159784793 L11.9116069,7.11767503e-05 C11.9308526,2.7695609e-05 11.9470805,-1.29181852e-06 11.9601641,-2.06167702e-05 Z M9.59995654,4.8000079 L9.59995654,11.999921 L15.8350082,8.40006322 L9.59995654,4.8000079 Z" id="Combined-Shape" fill="#FFFFFF" mask="url(#mask-2)"></path>
                        </g>
                    </g>
                </g>
            </g>
        </g>
    </g>
</svg>
