<svg width="6" height="3" viewBox="0 0 6 3" fill="none" xmlns="http://www.w3.org/2000/svg">
<path d="M3.56062 0.667126C3.15399 0.682766 3.13835 1.09847 3.13835 1.09847H3.00802L2.69001 1.42587H3.12271V2.30925H3.59712V1.42587H3.81607V1.09847H3.60754C3.60754 1.09847 3.60754 0.932168 3.82129 0.942595V0.703514C3.71702 0.672339 3.63882 0.661965 3.56062 0.667126ZM1.47537 0.687927V2.31968H1.93935V1.78443L2.41892 2.31968H3.0028L2.38764 1.61292L2.89854 1.09847H2.32508L1.93413 1.49859V0.687927H1.47537ZM0.938401 0.687927V1.11406C0.938401 1.11406 0.0104906 0.968557 6.40338e-05 1.69091C-0.00514924 2.29372 0.599538 2.31447 0.604751 2.31447H1.39196V0.687927H0.938401ZM3.90465 1.09326V1.42587H4.4364L3.86294 2.30925H5.1037V1.99229H4.57195L5.1037 1.09326H3.90465ZM0.72987 1.43108C0.839348 1.43108 0.938401 1.45704 0.938401 1.45704V1.9559C0.938401 1.9559 0.437927 2.09103 0.437927 1.7065C0.432713 1.483 0.594325 1.43624 0.72987 1.43108ZM5.49991 1.71166C5.32787 1.71166 5.19232 1.84678 5.19232 2.01825C5.19232 2.18977 5.32787 2.32489 5.49991 2.32489C5.67189 2.32489 5.80744 2.18977 5.80744 2.01825C5.80744 1.84678 5.66668 1.71166 5.49991 1.71166Z" />
</svg>
