<svg xmlns="http://www.w3.org/2000/svg" xmlns:xlink="http://www.w3.org/1999/xlink" width="48" height="48" viewBox="0 0 48 48"><defs><path id="a" d="M0 0h48v48H0z"/></defs><g fill="none" fill-rule="evenodd"><use xlink:href="#a" fill="#FFF"/><path fill="#D9D9D9" fill-rule="nonzero" d="M23.65 12a11.65 11.65 0 1 0 0 23.3 11.65 11.65 0 0 0 0-23.3Zm7.52 17.77c-.25-.57-.76-.97-1.81-1.2-2.23-.52-4.3-.97-3.3-2.87 3.06-5.76.81-8.85-2.41-8.85-3.3 0-5.48 3.2-2.42 8.85 1.04 1.91-1.11 2.36-3.3 2.86-1.04.24-1.55.64-1.8 1.21a9.72 9.72 0 1 1 17.23-6.12c0 2.32-.83 4.45-2.19 6.12Z"/></g></svg>