<svg width="150" height="150" viewBox="0 0 32 32" fill="none" xmlns="http://www.w3.org/2000/svg">
<rect width="32" height="32" fill="#FFF"/>
<path d="M18.5003 20.0002C17.7503 19.5999 18.1506 18.8499 18.5003 18.5002C18.9503 18.0502 19.5006 16.5005 19.5006 16.5005C20.4006 16.1002 20.501 15.4505 20.6003 15.0005C21.0006 13.7002 20.0003 13.5005 20.0003 13.5005C20.0003 13.5005 20.8 11.3508 20.1503 9.70085C19.3 7.55117 15.85 6.75053 15.25 8.75117C11.1503 7.85023 11.9997 13.4996 11.9997 13.4996C11.9997 13.4996 10.9994 13.6993 11.3997 14.9996C11.5 15.4496 11.5994 16.0992 12.4994 16.4996C12.4994 16.4996 13.0497 18.0492 13.4997 18.4992C13.8494 18.8489 14.2497 19.5989 13.4997 19.9992C11.9997 20.7989 7.49968 20.9996 7.49968 24.4993H24.4994C24.5003 20.9996 20.0003 20.7999 18.5003 20.0002V20.0002Z" fill="#0047B9"/>
</svg>
