<svg width="16" height="16" viewBox="0 0 16 16" fill="none" xmlns="http://www.w3.org/2000/svg">
<g clip-path="url(#clip0_62_12)">
<path d="M0 2V14H12.69V3.81H5.08L3.95 2H0Z" fill="#888888"/>
<path d="M12 3V6C12 6.6 11.6 7 11 7H3C2.4 7 2 6.6 2 6V3H12ZM12 2H2C1.4 2 1 2.4 1 3V6C1 7.1 1.9 8 3 8H11C12.1 8 13 7.1 13 6V3C13 2.4 12.6 2 12 2Z" fill="#666666"/>
<path d="M10 13H7.5V9.957C10.111 9.527 11 5.652 11 0H3C3 5.652 3.889 9.527 6.5 9.957V13H4C3.4 13 3 13.4 3 14H11C11 13.4 10.6 13 10 13Z" fill="#FFC857"/>
<path d="M9.99 1C9.884 5.952 8.973 8.701 7.338 8.97L7 9.026L6.663 8.97C5.028 8.701 4.116 5.952 4.01 1H9.99ZM11 0H3C3 5.652 3.889 9.527 6.5 9.957V13H4C3.4 13 3 13.4 3 14H11C11 13.4 10.6 13 10 13H7.5V9.957C10.111 9.527 11 5.652 11 0Z" fill="#E8A33D"/>
<path opacity="0.3" d="M7 1V9.026L7.337 8.97C8.972 8.701 9.884 5.952 9.99 1H7Z" fill="white"/>
<path d="M8.26 6.07999L6.55 7.39999H2.53L0 14H12.96L16 6.07999H8.26Z" fill="#AAAAAA"/>
</g>
<defs>
<clipPath id="clip0_62_12">
<rect width="16" height="16" fill="white"/>
</clipPath>
</defs>
</svg>
