<?xml version="1.0" encoding="UTF-8"?>
<svg width="16px" height="14px" viewBox="0 0 16 14" version="1.1" xmlns="http://www.w3.org/2000/svg" xmlns:xlink="http://www.w3.org/1999/xlink">
    <!-- Generator: Sketch 52.6 (67491) - http://www.bohemiancoding.com/sketch -->
    <title>apps-pagetree-folder-contains-news</title>
    <desc>Created with Sketch.</desc>
    <g id="Page-1" stroke="none" stroke-width="1" fill="none" fill-rule="evenodd">
        <g id="apps-pagetree-folder-contains-news">
            <polygon id="Path" fill="#888888" points="0 2.05872193 0 13.9827288 12.7806563 13.9827288 12.7806563 3.85725964 4.28727555 3.85725964 3.14920293 2.05872193"></polygon>
            <g id="mimetypes-x-sys_category" transform="translate(1.989637, 0.000000)">
                <path d="M0,0 L0,4.34067051 L6.58347321,10.9291883 L10.9982729,6.51100577 L4.41479968,0 L0,0 Z M1.93631565,1.93779934 C2.47848403,1.39521552 3.33046292,1.39521552 3.8726313,1.93779934 C4.41479968,2.48038315 4.41479968,3.33301486 3.8726313,3.87559867 C3.33046292,4.41818249 2.47848403,4.41818249 1.93631565,3.87559867 C1.39414727,3.33301486 1.39414727,2.48038315 1.93631565,1.93779934 Z" id="Shape" fill="#999999" fill-rule="nonzero"></path>
                <path d="M0.759930915,0.759930915 L0.759930915,4.01363979 L6.57012533,9.8238342 L9.8238342,6.57012533 L4.01363979,0.759930915 L0.759930915,0.759930915 Z M1.9219698,1.9219698 C2.46425461,1.37968499 3.31641646,1.37968499 3.85870127,1.9219698 C4.40098608,2.46425461 4.40098608,3.31641646 3.85870127,3.85870127 C3.31641646,4.40098608 2.46425461,4.40098608 1.9219698,3.85870127 C1.37968499,3.31641646 1.37968499,2.46425461 1.9219698,1.9219698 Z" id="Shape" fill="#FFFFFF" fill-rule="nonzero"></path>
                <path d="M1.92853147,1.92853147 C1.38363862,2.47342431 1.38363862,3.3296845 1.92853147,3.87457734 C2.47342431,4.41947019 3.3296845,4.41947019 3.87457734,3.87457734 C4.41947019,3.3296845 4.41947019,2.47342431 3.87457734,1.92853147 C3.3296845,1.38363862 2.47342431,1.38363862 1.92853147,1.92853147 Z M2.47342431,2.47342431 C2.70694982,2.23989881 3.09615899,2.23989881 3.3296845,2.47342431 C3.56321,2.70694982 3.56321,3.09615899 3.3296845,3.3296845 C3.09615899,3.56321 2.70694982,3.56321 2.47342431,3.3296845 C2.23989881,3.01831716 2.23989881,2.70694982 2.47342431,2.47342431 Z" id="Shape" fill="#999999" fill-rule="nonzero"></path>
                <polygon id="Path" fill="#FF8700" points="3.96545769 5.84231117 5.88298719 3.92400691 8.62176166 6.66278137 6.70423215 8.58031088"></polygon>
            </g>
            <polygon id="Path" fill="#AAAAAA" points="8.26 6.1761658 6.55 7.47725964 2.53 7.47725964 0 13.9827288 12.96 13.9827288 16 6.1761658"></polygon>
        </g>
    </g>
</svg>