<svg width="127" height="127" viewBox="0 0 127 127" fill="none" xmlns="http://www.w3.org/2000/svg">
<path d="M63.6667 0.333328C28.7347 0.333328 0.333328 28.7347 0.333328 63.6667C0.333328 98.5987 28.7347 127 63.6667 127C98.5987 127 127 98.5987 127 63.6667C127 28.7347 98.5987 0.333328 63.6667 0.333328ZM63.6667 28.068C72.3333 28.068 79.4013 35.1357 79.4013 43.8027C79.4013 52.4696 72.3336 59.5373 63.6667 59.5373C54.9997 59.5373 47.932 52.4696 47.932 43.8027C47.932 35.1357 54.9997 28.068 63.6667 28.068V28.068ZM89.5307 92.4693C89.5307 93.9381 88.3327 95.2715 86.7285 95.2715L40.5979 95.2663C39.1291 95.2663 37.7957 94.0683 37.7957 92.4641V90.5996C37.7957 76.3343 49.3947 64.7356 63.6597 64.7356C77.9251 64.7356 89.5237 76.3345 89.5237 90.5996L89.5307 92.4693Z" fill="#1D9BF0"/>
</svg>
