<svg width="152" height="152" viewBox="0 0 152 152" fill="none" xmlns="http://www.w3.org/2000/svg">
<rect width="152" height="152" fill="#1D9BF0"/>
<g clip-path="url(#clip0_1_6)">
<path d="M118.159 54.4566C118.203 55.3858 118.225 56.3181 118.225 57.263C118.225 86.0063 96.349 119.145 56.3424 119.145C44.053 119.145 32.627 115.55 23 109.374C24.7083 109.572 26.4384 109.672 28.1874 109.672C38.3869 109.672 47.7542 106.208 55.1942 100.367C45.6861 100.185 37.6517 93.9062 34.8859 85.2616C36.2125 85.5182 37.5703 85.6527 38.9782 85.6527C40.9649 85.6527 42.8828 85.3899 44.7037 84.8893C34.7639 82.8901 27.2581 74.1016 27.2581 63.5673C27.2581 63.4766 27.2581 63.3858 27.2581 63.2951C30.196 64.9251 33.5468 65.9013 37.1135 66.0139C31.2816 62.1187 27.4427 55.4546 27.4427 47.9082C27.4427 43.9223 28.5159 40.1897 30.3837 36.9734C41.1057 50.1327 57.1403 58.7898 75.2084 59.6971C74.8424 58.1046 74.6453 56.4495 74.6453 54.7413C74.6453 42.7334 84.3818 33 96.399 33C102.65 33 108.304 35.6406 112.262 39.8581C117.211 38.8851 121.873 37.0736 126.078 34.5831C124.448 39.6641 121.006 43.9254 116.513 46.6098C120.912 46.0904 125.105 44.9203 129 43.1933C126.09 47.5578 122.405 51.3873 118.159 54.4566Z" fill="white"/>
</g>
<defs>
<clipPath id="clip0_1_6">
<rect width="106" height="106" fill="white" transform="translate(23 23)"/>
</clipPath>
</defs>
</svg>
