<svg width="260" height="260" viewBox="0 0 260 260" fill="none" xmlns="http://www.w3.org/2000/svg">
<g clip-path="url(#clip0_1_16)">
<path d="M233.401 76.9793C233.509 79.2586 233.563 81.5455 233.563 83.8631C233.563 154.365 179.905 235.65 81.7757 235.65C51.6316 235.65 23.6056 226.832 -0.00769043 211.684C4.18239 212.167 8.42619 212.413 12.716 212.413C37.7337 212.413 60.7101 203.917 78.9592 189.59C55.6375 189.145 35.9303 173.743 29.1464 152.539C32.4002 153.168 35.7308 153.498 39.1842 153.498C44.0572 153.498 48.7615 152.854 53.2278 151.626C28.8471 146.722 10.4368 125.165 10.4368 99.3265C10.4368 99.1039 10.4368 98.8814 10.4368 98.6588C17.6428 102.657 25.8618 105.051 34.6104 105.328C20.3058 95.7733 10.8896 79.4274 10.8896 60.9174C10.8896 51.1405 13.5218 41.9852 18.1033 34.0962C44.4026 66.3737 83.7326 87.608 128.051 89.8335C127.153 85.9274 126.669 81.8678 126.669 77.6777C126.669 48.2243 150.551 24.3501 180.028 24.3501C195.361 24.3501 209.228 30.827 218.936 41.1718C231.076 38.7851 242.511 34.3418 252.825 28.2332C248.826 40.696 240.385 51.1482 229.365 57.7326C240.155 56.4587 250.438 53.5886 259.992 49.3524C252.855 60.0579 243.815 69.451 233.401 76.9793Z" fill="#1D9BF0"/>
</g>
<defs>
<clipPath id="clip0_1_16">
<rect width="260" height="260" fill="white"/>
</clipPath>
</defs>
</svg>
