<svg width="365" height="365" viewBox="0 0 365 365" fill="none" xmlns="http://www.w3.org/2000/svg">
<rect width="365" height="365" fill="#0047B9"/>
<path d="M210.165 204.484V206.552C210.165 222.053 197.51 234.707 182.011 234.707C166.511 234.707 153.857 222.052 153.857 206.552V204.484L64.4651 187.177C62.6587 186.914 60.8524 186.4 59.2982 185.37V263.387C59.2982 282.5 74.7988 298 93.911 298H270.361C289.475 298 304.974 282.499 304.974 263.387L304.984 185.37C303.43 186.147 301.624 186.662 299.817 187.177L210.165 204.484Z" fill="white"/>
<path d="M270.625 115.356H239.11V102.438C239.11 82.5481 222.832 66.2704 202.942 66.2704H161.083C141.192 66.2704 124.915 82.5481 124.915 102.438V115.356H93.3995C74.5384 115.356 59.3009 130.594 59.3009 149.454V163.925C59.3009 168.578 62.6614 172.453 67.0511 173.482L153.859 190.274C154.122 175.036 166.514 162.885 182.014 162.885C197.252 162.885 209.917 175.025 210.168 190.274L296.712 173.482C301.365 172.453 304.725 168.578 304.725 163.925V149.202C304.725 130.603 289.487 115.354 270.627 115.354L270.625 115.356ZM151.524 102.186C151.524 97.0191 155.914 92.8815 160.828 92.8815H202.941C208.108 92.8815 212.245 97.2713 212.245 102.186V115.103H151.524L151.524 102.186Z" fill="white"/>
<path d="M196.22 206.553V191.052C196.22 183.302 189.761 176.844 182.011 176.844C174.261 176.844 167.802 183.302 167.802 191.052V206.553C167.802 214.303 174.261 220.762 182.011 220.762C189.761 220.762 196.22 214.303 196.22 206.553Z" fill="white"/>
</svg>
