<svg width="32" height="32" viewBox="0 0 32 32" fill="none" xmlns="http://www.w3.org/2000/svg">
<rect width="32" height="32" fill="#777777"/>
<path fill-rule="evenodd" clip-rule="evenodd" d="M15.7959 5.88342C10.4847 5.88342 6.17909 10.189 6.17909 15.5002C6.17909 20.8114 10.4847 25.1169 15.7959 25.1169C21.107 25.1169 25.4126 20.8114 25.4126 15.5002C25.4126 10.189 21.107 5.88342 15.7959 5.88342ZM4.29591 15.5002C4.29591 9.14894 9.44461 4.00024 15.7959 4.00024C22.1471 4.00024 27.2958 9.14894 27.2958 15.5002C27.2958 21.8514 22.1471 27.0001 15.7959 27.0001C9.44461 27.0001 4.29591 21.8514 4.29591 15.5002Z" fill="#D9D9D9"/>
<path d="M15.7959 22.1008C19.4412 22.1008 22.3964 19.1456 22.3964 15.5002C22.3964 11.8548 19.4412 8.89966 15.7959 8.89966C12.1505 8.89966 9.1953 11.8548 9.1953 15.5002C9.1953 19.1456 12.1505 22.1008 15.7959 22.1008Z" fill="white"/>
<path fill-rule="evenodd" clip-rule="evenodd" d="M27.7041 8.42323C27.7041 9.96765 26.4586 11.2132 24.9141 11.2132C23.3697 11.2132 22.1242 9.96765 22.1242 8.42323C22.1242 6.8788 23.3697 5.6333 24.9141 5.6333C26.4461 5.6333 27.7041 6.8788 27.7041 8.42323Z" fill="white"/>
</svg>
