<?xml version="1.0" encoding="UTF-8" standalone="no"?>
<!DOCTYPE svg PUBLIC "-//W3C//DTD SVG 1.1//EN" "http://www.w3.org/Graphics/SVG/1.1/DTD/svg11.dtd">
<svg width="100%" height="100%" viewBox="0 0 24 24" version="1.1" xmlns="http://www.w3.org/2000/svg" xmlns:xlink="http://www.w3.org/1999/xlink" xml:space="preserve" xmlns:serif="http://www.serif.com/" style="fill-rule:evenodd;clip-rule:evenodd;stroke-linejoin:round;stroke-miterlimit:2;">
    <path d="M10.5,18.879L10.5,1.5C10.5,0.672 11.172,0 12,0C12.828,0 13.5,0.672 13.5,1.5L13.5,18.879L21.44,10.94C22.025,10.354 22.976,10.354 23.561,10.94C24.146,11.525 24.146,12.476 23.561,13.061L13.061,23.561C12.88,23.741 12.666,23.866 12.438,23.936L12.434,23.937C12.307,23.975 12.174,23.997 12.036,24L12,24.001L11.964,24C11.826,23.997 11.693,23.975 11.566,23.937L11.562,23.936C11.334,23.866 11.12,23.741 10.939,23.561L0.439,13.061C-0.146,12.476 -0.146,11.525 0.439,10.94C1.024,10.354 1.975,10.354 2.56,10.94L10.5,18.879Z"/>
</svg>
