<svg width="100%" height="100%" viewBox="0 0 24 24" version="1.1" xmlns="http://www.w3.org/2000/svg" xmlns:xlink="http://www.w3.org/1999/xlink" xml:space="preserve" xmlns:serif="http://www.serif.com/" style="fill-rule:evenodd;clip-rule:evenodd;stroke-linejoin:round;stroke-miterlimit:2;">
    <path d="M18.879,10.5L10.939,2.56C10.354,1.975 10.354,1.024 10.939,0.439C11.525,-0.146 12.475,-0.146 13.061,0.439L23.561,10.939C23.718,11.096 23.833,11.28 23.906,11.476L23.907,11.48C23.967,11.642 24,11.817 24,12C24,12.183 23.967,12.358 23.907,12.52L23.906,12.524C23.833,12.72 23.718,12.904 23.561,13.061L13.061,23.561C12.475,24.146 11.525,24.146 10.939,23.561C10.354,22.976 10.354,22.025 10.939,21.44L18.879,13.5L1.5,13.5C0.672,13.5 0,12.828 0,12C0,11.172 0.672,10.5 1.5,10.5L18.879,10.5Z"/>
</svg>
