<?xml version="1.0" encoding="UTF-8" standalone="no"?>
<!DOCTYPE svg PUBLIC "-//W3C//DTD SVG 1.1//EN" "http://www.w3.org/Graphics/SVG/1.1/DTD/svg11.dtd">
<svg width="100%" height="100%" viewBox="0 0 24 24" version="1.1" xmlns="http://www.w3.org/2000/svg" xmlns:xlink="http://www.w3.org/1999/xlink" xml:space="preserve" xmlns:serif="http://www.serif.com/" style="fill-rule:evenodd;clip-rule:evenodd;stroke-linejoin:round;stroke-miterlimit:2;">
    <path d="M12,18.275L2.372,23.776C1.915,24.038 1.313,24.073 0.814,23.867C0.314,23.661 0,23.25 0,22.8C0,22.8 0,3.6 0,3.6C0,1.612 2.015,0 4.5,0L19.5,0C21.985,0 24,1.612 24,3.6L24,22.8C24,23.25 23.686,23.661 23.186,23.867C22.687,24.073 22.085,24.038 21.628,23.776L12,18.275ZM21,20.468L21,3.6C21,2.937 20.328,2.4 19.5,2.4C19.5,2.4 4.5,2.4 4.5,2.4C3.672,2.4 3,2.937 3,3.6L3,20.468L11.128,15.824C11.65,15.525 12.35,15.525 12.872,15.824L21,20.468Z"/>
</svg>
