<?xml version="1.0" encoding="UTF-8" standalone="no"?>
<!DOCTYPE svg PUBLIC "-//W3C//DTD SVG 1.1//EN" "http://www.w3.org/Graphics/SVG/1.1/DTD/svg11.dtd">
<svg width="100%" height="100%" viewBox="0 0 24 24" version="1.1" xmlns="http://www.w3.org/2000/svg" xmlns:xlink="http://www.w3.org/1999/xlink" xml:space="preserve" xmlns:serif="http://www.serif.com/" style="fill-rule:evenodd;clip-rule:evenodd;stroke-linejoin:round;stroke-miterlimit:2;">
    <path d="M8,17.229L1.581,21.814C1.276,22.031 0.875,22.061 0.542,21.889C0.209,21.718 0,21.375 0,21L0,5C0,3.343 1.343,2 3,2L13,2C14.657,2 16,3.343 16,5L16,21C16,21.375 15.791,21.718 15.458,21.889C15.125,22.061 14.724,22.031 14.419,21.814L8,17.229ZM14,19.057L14,5C14,4.448 13.552,4 13,4C13,4 3,4 3,4C2.448,4 2,4.448 2,5L2,19.057L7.419,15.186C7.766,14.938 8.234,14.938 8.581,15.186L14,19.057ZM19.5,11L19.5,9.5C19.5,8.948 19.948,8.5 20.5,8.5C21.052,8.5 21.5,8.948 21.5,9.5L21.5,11L23,11C23.552,11 24,11.448 24,12C24,12.552 23.552,13 23,13L21.5,13L21.5,14.5C21.5,15.052 21.052,15.5 20.5,15.5C19.948,15.5 19.5,15.052 19.5,14.5L19.5,13L18,13C17.448,13 17,12.552 17,12C17,11.448 17.448,11 18,11L19.5,11Z"/>
</svg>
