<?xml version="1.0" encoding="UTF-8" standalone="no"?>
<!DOCTYPE svg PUBLIC "-//W3C//DTD SVG 1.1//EN" "http://www.w3.org/Graphics/SVG/1.1/DTD/svg11.dtd">
<svg width="100%" height="100%" viewBox="0 0 24 24" version="1.1" xmlns="http://www.w3.org/2000/svg" xmlns:xlink="http://www.w3.org/1999/xlink" xml:space="preserve" xmlns:serif="http://www.serif.com/" style="fill-rule:evenodd;clip-rule:evenodd;stroke-linejoin:round;stroke-miterlimit:2;">
    <path d="M21.6,15L21.6,19C21.6,19.552 21.063,20 20.4,20C20.4,20 3.6,20 3.6,20C2.937,20 2.4,19.552 2.4,19C2.4,19 2.4,15 2.4,15C2.4,14.448 1.862,14 1.2,14C0.538,14 0,14.448 0,15L0,19C0,20.657 1.612,22 3.6,22L20.4,22C22.388,22 24,20.657 24,19L24,15C24,14.448 23.462,14 22.8,14C22.138,14 21.6,14.448 21.6,15ZM10.8,12.586L10.8,3C10.8,2.448 11.338,2 12,2C12.662,2 13.2,2.448 13.2,3L13.2,12.586L17.151,9.293C17.62,8.903 18.38,8.903 18.849,9.293C19.317,9.683 19.317,10.317 18.849,10.707L12.849,15.707C12.704,15.827 12.533,15.91 12.35,15.957L12.347,15.958C12.246,15.983 12.139,15.998 12.029,16L12,16L11.971,16C11.861,15.998 11.754,15.983 11.653,15.958L11.65,15.957C11.467,15.91 11.296,15.827 11.151,15.707L5.151,10.707C4.683,10.317 4.683,9.683 5.151,9.293C5.62,8.903 6.38,8.903 6.849,9.293L10.8,12.586Z"/>
</svg>
