<?xml version="1.0" encoding="UTF-8" standalone="no"?>
<!DOCTYPE svg PUBLIC "-//W3C//DTD SVG 1.1//EN" "http://www.w3.org/Graphics/SVG/1.1/DTD/svg11.dtd">
<svg width="100%" height="100%" viewBox="0 0 24 24" version="1.1" xmlns="http://www.w3.org/2000/svg" xmlns:xlink="http://www.w3.org/1999/xlink" xml:space="preserve" xmlns:serif="http://www.serif.com/" style="fill-rule:evenodd;clip-rule:evenodd;stroke-linejoin:round;stroke-miterlimit:2;">
    <path d="M10.5,10.5L10.5,1.5C10.5,0.672 11.172,0 12,0C12.828,0 13.5,0.672 13.5,1.5L13.5,10.5L22.5,10.5C23.328,10.5 24,11.172 24,12C24,12.828 23.328,13.5 22.5,13.5L13.5,13.5L13.5,22.5C13.5,23.328 12.828,24 12,24C11.172,24 10.5,23.328 10.5,22.5L10.5,13.5L1.5,13.5C0.672,13.5 0,12.828 0,12C0,11.172 0.672,10.5 1.5,10.5L10.5,10.5Z"/>
</svg>
