<?xml version="1.0" encoding="UTF-8" standalone="no"?>
<!DOCTYPE svg PUBLIC "-//W3C//DTD SVG 1.1//EN" "http://www.w3.org/Graphics/SVG/1.1/DTD/svg11.dtd">
<svg width="100%" height="100%" viewBox="0 0 24 24" version="1.1" xmlns="http://www.w3.org/2000/svg" xmlns:xlink="http://www.w3.org/1999/xlink" xml:space="preserve" xmlns:serif="http://www.serif.com/" style="fill-rule:evenodd;clip-rule:evenodd;stroke-linejoin:round;stroke-miterlimit:2;">
    <path d="M4.364,7.636L4.364,1.091C4.364,0.488 4.852,0 5.455,0L18.545,0C19.148,0 19.636,0.488 19.636,1.091L19.636,7.636L20.727,7.636C22.535,7.636 24,9.102 24,10.909L24,16.364C24,18.171 22.535,19.636 20.727,19.636L19.636,19.636L19.636,22.909C19.636,23.512 19.148,24 18.545,24L5.455,24C4.852,24 4.364,23.512 4.364,22.909L4.364,19.636L3.273,19.636C1.465,19.636 0,18.171 0,16.364L0,10.909C0,9.102 1.465,7.636 3.273,7.636L4.364,7.636ZM6.545,15.273L6.545,21.818L17.455,21.818L17.455,15.273L6.545,15.273ZM19.636,17.455L20.727,17.455C21.33,17.455 21.818,16.966 21.818,16.364C21.818,16.364 21.818,10.909 21.818,10.909C21.818,10.307 21.33,9.818 20.727,9.818L3.273,9.818C2.67,9.818 2.182,10.307 2.182,10.909C2.182,10.909 2.182,16.364 2.182,16.364C2.182,16.966 2.67,17.455 3.273,17.455L4.364,17.455L4.364,14.182C4.364,13.579 4.852,13.091 5.455,13.091L18.545,13.091C19.148,13.091 19.636,13.579 19.636,14.182L19.636,17.455ZM17.455,7.636L17.455,2.182L6.545,2.182L6.545,7.636L17.455,7.636Z"/>
</svg>
