<?xml version="1.0" encoding="UTF-8" standalone="no"?>
<!DOCTYPE svg PUBLIC "-//W3C//DTD SVG 1.1//EN" "http://www.w3.org/Graphics/SVG/1.1/DTD/svg11.dtd">
<svg width="100%" height="100%" viewBox="0 0 24 24" version="1.1" xmlns="http://www.w3.org/2000/svg" xmlns:xlink="http://www.w3.org/1999/xlink" xml:space="preserve" xmlns:serif="http://www.serif.com/" style="fill-rule:evenodd;clip-rule:evenodd;stroke-linejoin:round;stroke-miterlimit:2;">
    <path d="M17.541,19.238C15.694,20.717 13.35,21.6 10.8,21.6C4.835,21.6 0,16.765 0,10.8C0,4.835 4.835,0 10.8,0C16.765,0 21.6,4.835 21.6,10.8C21.6,13.35 20.717,15.694 19.238,17.541L23.649,21.952C24.117,22.42 24.117,23.18 23.649,23.649C23.18,24.117 22.42,24.117 21.952,23.649L17.541,19.238ZM16.85,16.628C18.305,15.118 19.2,13.064 19.2,10.8C19.2,6.161 15.439,2.4 10.8,2.4C6.161,2.4 2.4,6.161 2.4,10.8C2.4,15.439 6.161,19.2 10.8,19.2C13.064,19.2 15.118,18.305 16.628,16.85C16.66,16.809 16.694,16.769 16.732,16.732C16.769,16.694 16.809,16.66 16.85,16.628Z"/>
</svg>
