<?xml version="1.0" encoding="UTF-8" standalone="no"?>
<!DOCTYPE svg PUBLIC "-//W3C//DTD SVG 1.1//EN" "http://www.w3.org/Graphics/SVG/1.1/DTD/svg11.dtd">
<svg width="100%" height="100%" viewBox="0 0 20 20" version="1.1" xmlns="http://www.w3.org/2000/svg" xmlns:xlink="http://www.w3.org/1999/xlink" xml:space="preserve" xmlns:serif="http://www.serif.com/" style="fill-rule:evenodd;clip-rule:evenodd;stroke-linejoin:round;stroke-miterlimit:2;">
    <path d="M19.928,3.952C19.841,4.098 19.394,4.61 18.917,5.077C18.107,5.88 18.064,5.967 18.064,6.64C18.064,7.676 17.573,9.84 17.082,11.022C16.171,13.243 14.221,15.537 12.269,16.692C9.524,18.313 5.868,18.723 2.789,17.773C1.763,17.45 -0,16.633 -0,16.487C-0,16.442 0.534,16.385 1.186,16.369C2.544,16.341 3.903,15.962 5.058,15.288L5.838,14.82L4.942,14.514C3.67,14.076 2.529,13.067 2.24,12.118C2.153,11.811 2.182,11.796 2.99,11.796L3.828,11.782L3.12,11.445C2.281,11.021 1.515,10.307 1.14,9.575C0.866,9.049 0.519,7.72 0.62,7.617C0.649,7.574 0.953,7.662 1.299,7.779C2.295,8.144 2.426,8.056 1.848,7.442C0.765,6.332 0.432,4.681 0.952,3.118L1.198,2.417L2.152,3.366C4.103,5.28 6.4,6.42 9.03,6.755L9.752,6.842L9.708,6.126C9.579,4.271 10.72,2.576 12.527,1.918C13.191,1.684 14.319,1.656 15.056,1.859C15.345,1.946 15.893,2.239 16.284,2.502L16.992,2.984L17.772,2.735C18.206,2.604 18.784,2.384 19.044,2.238C19.289,2.106 19.506,2.033 19.506,2.077C19.506,2.325 18.971,3.173 18.524,3.64C17.916,4.298 18.09,4.357 19.318,3.918C20.058,3.674 20.073,3.674 19.928,3.952Z" style="fill-rule:nonzero;"/>
</svg>
