<?xml version="1.0" encoding="UTF-8" standalone="no"?>
<!DOCTYPE svg PUBLIC "-//W3C//DTD SVG 1.1//EN" "http://www.w3.org/Graphics/SVG/1.1/DTD/svg11.dtd">
<svg width="100%" height="100%" viewBox="0 0 20 17" version="1.1" xmlns="http://www.w3.org/2000/svg" xmlns:xlink="http://www.w3.org/1999/xlink" xml:space="preserve" xmlns:serif="http://www.serif.com/" style="fill-rule:evenodd;clip-rule:evenodd;stroke-linejoin:round;stroke-miterlimit:2;">
    <path d="M19.928,2.452C19.841,2.598 19.394,3.11 18.917,3.577C18.107,4.38 18.064,4.467 18.064,5.14C18.064,6.176 17.573,8.34 17.082,9.522C16.171,11.743 14.221,14.037 12.269,15.192C9.524,16.813 5.868,17.223 2.789,16.273C1.763,15.95 0,15.133 0,14.987C0,14.942 0.534,14.885 1.186,14.869C2.544,14.841 3.903,14.462 5.058,13.788L5.838,13.32L4.942,13.014C3.67,12.576 2.529,11.567 2.24,10.618C2.153,10.311 2.182,10.296 2.99,10.296L3.828,10.282L3.12,9.945C2.281,9.521 1.515,8.807 1.14,8.075C0.866,7.549 0.519,6.22 0.62,6.117C0.649,6.074 0.953,6.162 1.299,6.279C2.295,6.644 2.426,6.556 1.848,5.942C0.765,4.832 0.432,3.181 0.952,1.618L1.198,0.917L2.152,1.866C4.103,3.78 6.4,4.92 9.03,5.255L9.752,5.342L9.708,4.626C9.579,2.771 10.72,1.076 12.527,0.418C13.191,0.184 14.319,0.156 15.056,0.359C15.345,0.446 15.893,0.739 16.284,1.002L16.992,1.484L17.772,1.235C18.206,1.104 18.784,0.884 19.044,0.738C19.289,0.606 19.506,0.533 19.506,0.577C19.506,0.825 18.971,1.673 18.524,2.14C17.916,2.798 18.09,2.857 19.318,2.418C20.058,2.174 20.073,2.174 19.928,2.452Z" style="fill-rule:nonzero;"/>
</svg>
