<svg width="134" height="134" viewBox="0 0 134 134" fill="none" xmlns="http://www.w3.org/2000/svg">
<path d="M10.6667 8C9.19267 8 8 9.19271 8 10.6667V122.667C8 124.141 9.19271 125.333 10.6667 125.333H122.667C124.141 125.333 125.333 124.141 125.333 122.667C125.333 121.193 124.141 120 122.667 120H13.3333V10.6667C13.3333 9.19267 12.1406 8 10.6667 8ZM108 30.6667C102.875 30.6667 98.6667 34.8749 98.6667 40C98.6667 42.1041 99.3906 44.0156 100.583 45.5833L84.75 68.2087C84.0781 68.0524 83.3803 68.0003 82.6667 68.0003C80.0625 68.0003 77.6979 69.0524 76 70.7921L64.8333 64.2921C65.151 63.3546 65.3333 62.3754 65.3333 61.3337C65.3333 56.2086 61.1251 52.0003 56 52.0003C50.8749 52.0003 46.6667 56.2086 46.6667 61.3337C46.6667 63.4378 47.3906 65.3493 48.5833 66.917L32.75 89.5423C32.0781 89.3861 31.3803 89.334 30.6667 89.334C25.5416 89.334 21.3333 93.5423 21.3333 98.6673C21.3333 103.792 25.5416 108.001 30.6667 108.001C35.7917 108.001 40 103.792 40 98.6673C40 96.1673 38.9948 93.8496 37.3749 92.1673L52.8336 70.0847C53.8232 70.4493 54.8909 70.668 56.0003 70.668C58.1669 70.668 60.1617 69.8815 61.7503 68.6264L73.542 75.5013C73.4222 76.0951 73.3337 76.7097 73.3337 77.3347C73.3337 82.4597 77.5419 86.668 82.667 86.668C87.7921 86.668 92.0003 82.4597 92.0003 77.3347C92.0003 74.8347 90.9951 72.5169 89.3753 70.8347L104.834 48.752C105.824 49.1166 106.891 49.3353 108.001 49.3353C113.126 49.3353 117.334 45.1271 117.334 40.002C117.334 34.8769 113.126 30.6687 108.001 30.6687L108 30.6667Z" fill="black"/>
</svg>
