<svg xmlns="http://www.w3.org/2000/svg" width="21" height="20" viewBox="0 0 21 20"><g fill="none" fill-rule="evenodd"><path d="M0 0h20v20H0z"/><path fill="#111" fill-rule="nonzero" d="M10.14 1.67H2.52C1.2 1.67.17 2.8.17 4.17V17.6c.08.63.82.96 1.34.56l4.82-3.77 4.82 3.77a.83.83 0 0 0 1.35-.66V4.17c0-1.37-1.04-2.5-2.36-2.5Zm0 1.66.1.01c.32.05.6.39.6.83v11.62l-4-3.11-.1-.07a.83.83 0 0 0-.92.07l-3.99 3.11V4.17c0-.48.33-.84.7-.84h7.61Zm9.55 4.31c.33.33.33.86 0 1.18L18.51 10l1.18 1.18a.83.83 0 0 1-1.18 1.18l-1.17-1.18-1.18 1.18a.83.83 0 0 1-1.18-1.18L16.16 10l-1.18-1.18a.83.83 0 0 1 1.18-1.18l1.18 1.18 1.17-1.18a.83.83 0 0 1 1.18 0Z"/></g></svg>