<?xml version="1.0" encoding="UTF-8"?>
<svg width="16px" height="20px" viewBox="0 0 16 20" version="1.1" xmlns="http://www.w3.org/2000/svg"
	 xmlns:xlink="http://www.w3.org/1999/xlink"
	 style="fill-rule:evenodd;clip-rule:evenodd;stroke-linejoin:round;stroke-miterlimit:2">
	<path d="M13,0 L3,0 C1.34314575,0 0,1.34314575 0,3 L0,19.11 C0.0392314921,19.4636974 0.26347586,19.7698972 0.588840379,19.914046 C0.914204899,20.0581948 1.29166197,20.0185717 1.58,19.81 L8,15.23 L14.42,19.81 C14.7242465,20.0266269 15.123855,20.0556532 15.4562129,19.8852672 C15.7885708,19.7148812 15.9982786,19.3734839 16,19 L16,3 C16,1.34314575 14.6568542,0 13,0 Z M13,2 L13.12,2 C13.6249651,2.0610234 14.0036739,2.49137433 14.0000265,3 L14.0000265,17.06 L8.58,13.19 L8.48,13.12 C8.14246053,12.9382135 7.73070296,12.9654051 7.42,13.19 L2,17.06 L2,3 C2,2.44771525 2.44771525,2 3,2 L13,2 Z"></path>
	<mask id="b">
		<path d="M13.12,2 C13.6249651,2.0610234 14.0036739,2.49137433 14.0000265,3 L14,17 L13.916,17 L8.58,13.19 L8.48,13.12 C8.14246053,12.9382135 7.73070296,12.9654051 7.42,13.19 L2.084,17 L2,17 L2,3 C2,2.44771525 2.44771525,2 3,2 L13.12,2 Z"></path>
	</mask>
	<rect id="overlay" x="0" y="2" width="14" height="0" mask="url(#b)">
	</rect>
</svg>
