<svg xmlns="http://www.w3.org/2000/svg" xml:space="preserve" style="fill-rule:evenodd;clip-rule:evenodd;stroke-linejoin:round;stroke-miterlimit:2" viewBox="0 0 24 24"><path d="M7.5 17.32 1.64 21.9a1 1 0 0 1-1.63-.8V4.93c0-1.7 1.3-3.03 2.86-3.03h9.23a2.95 2.95 0 0 1 2.86 3.03v16.16a1.01 1.01 0 0 1-1.63.8l-5.85-4.57Zm5.45 1.7V4.93c0-.54-.35-1.01-.84-1.01H2.88c-.5 0-.84.47-.84 1.01v14.09l4.83-3.78c.37-.28.88-.28 1.25 0l4.83 3.78Zm7.88-8.45 1.43-1.43a1.01 1.01 0 0 1 1.42 1.43L22.27 12l1.42 1.43a1.01 1.01 0 0 1-1.42 1.43l-1.43-1.43-1.43 1.43a1.01 1.01 0 0 1-1.43-1.43L19.4 12l-1.43-1.43a1.01 1.01 0 0 1 1.43-1.43l1.43 1.43Z"/></svg>