<svg xmlns="http://www.w3.org/2000/svg" width="20" height="20" viewBox="0 0 20 20"><g fill="none" fill-rule="evenodd"><path d="M0 0h20v20H0z"/><path fill="#111" fill-rule="nonzero" d="M10.14 1.67H2.52C1.2 1.67.17 2.8.17 4.17V17.6c.08.63.82.96 1.34.56l4.82-3.77 4.82 3.77a.83.83 0 0 0 1.35-.66V4.17c0-1.37-1.04-2.5-2.36-2.5Zm0 1.66.1.01c.32.05.6.39.6.83v11.62l-4-3.11-.1-.07a.83.83 0 0 0-.92.07l-3.99 3.11V4.17c0-.48.33-.84.7-.84h7.61Zm6.46 3.34c.46 0 .83.37.83.83v1.67h1.67a.83.83 0 1 1 0 1.66h-1.67v1.67a.83.83 0 1 1-1.66 0v-1.67H14.1a.83.83 0 1 1 0-1.66h1.67V7.5c0-.46.37-.83.83-.83Z"/></g></svg>