<svg xmlns="http://www.w3.org/2000/svg" width="21" height="20" viewBox="0 0 21 20"><g fill="none" fill-rule="evenodd"><path d="M1 0h20v20H1z"/><path fill="#111" fill-rule="nonzero" d="M10.14 1.67c1.32 0 2.36 1.13 2.36 2.5v3.2a.83.83 0 0 1-1.67 0v-3.2c0-.48-.32-.84-.69-.84H2.52c-.36 0-.69.36-.69.84v11.62l3.99-3.11c.27-.21.63-.24.92-.07l.1.07 5.34 4.16a.83.83 0 0 1-1.03 1.32l-4.82-3.77-4.82 3.77a.83.83 0 0 1-1.34-.55V4.17c0-1.37 1.03-2.5 2.35-2.5h7.62Zm9.22 6.74c.33.33.33.85 0 1.18l-5 5a.84.84 0 0 1-1.18 0l-2.27-2.27a.84.84 0 0 1 1.18-1.18l1.68 1.68 4.41-4.41a.83.83 0 0 1 1.18 0Z"/></g></svg>