<svg xmlns="http://www.w3.org/2000/svg" width="19.11" height="22" viewBox="0 0 19.11 22"><g fill="none" stroke="#000" stroke-linecap="round" stroke-linejoin="round" stroke-width="2"><path d="M3 3H16.1l.2.01q.1 0 .2.03l.18.05q.1.02.19.06l.17.09q.1.04.17.1l.16.11.15.14q.07.06.13.14l.11.16q.06.08.1.17l.09.17.06.19.05.19.03.2.01.19v14.2l-.04.2-.05.18q-.02.1-.06.19l-.08.17-.1.17-.12.16q-.06.08-.13.14l-.15.14-.16.11q-.08.06-.17.1l-.17.09-.19.06-.19.05-.2.03-.19.01H3l-.2-.01q-.1 0-.2-.03l-.18-.05q-.1-.02-.19-.06l-.17-.09q-.09-.04-.17-.1l-.16-.11-.14-.14-.14-.14-.11-.16q-.06-.08-.1-.17l-.09-.17-.06-.19-.05-.19-.03-.2L1 19V5l.01-.2q0-.1.03-.2l.05-.18q.02-.1.06-.19l.09-.17q.04-.09.1-.17l.11-.16.14-.14.14-.14.16-.11q.08-.06.17-.1l.17-.09.19-.06.19-.05.2-.03L3 3h0ZM13.36 1v4M5.75 1v4M1 9h17.11"/></g></svg>