<svg xmlns="http://www.w3.org/2000/svg" width="20" height="22" fill="none" viewBox="0 0 20 22"><path fill="#000" fill-rule="evenodd" d="M5.75 0a1 1 0 0 1 1 1v1h5.61V1a1 1 0 1 1 2 0v1h1.74a1 1 0 0 1 .05 0l.18.01c.15 0 .3.03.45.07l.14.04a1.9 1.9 0 0 1 .42.15l.13.07c.11.05.23.11.34.2l.13.09a1 1 0 0 1 .11.09l.14.13a1.88 1.88 0 0 1 .28.31l.1.15c.07.1.14.2.19.3l.07.15a1 1 0 0 1 .07.17l.06.19.02.05.05.19.02.1.03.2a1 1 0 0 1 0 .1l.02.19V8.86a1 1 0 0 1 0 .28V19.2a1 1 0 0 1-.02.2l-.04.2-.02.07-.04.15c-.03.12-.06.24-.12.36v.02l-.09.17a.97.97 0 0 1-.04.08l-.1.17a1 1 0 0 1-.06.09l-.12.16c-.08.1-.16.2-.26.28l-.14.13a.99.99 0 0 1-.11.1l-.15.1-.3.18-.15.07a1 1 0 0 1-.17.07l-.19.06-.05.02-.19.05a.98.98 0 0 1-.1.02l-.2.03a1 1 0 0 1-.1 0l-.19.02H2.95l-.18-.01c-.15 0-.3-.03-.45-.07l-.14-.04a1.89 1.89 0 0 1-.42-.15l-.14-.07c-.11-.05-.21-.12-.31-.19l-.15-.1a1 1 0 0 1-.14-.11l-.28-.28a1 1 0 0 1-.11-.14l-.1-.15c-.07-.1-.14-.2-.19-.3l-.07-.15a1 1 0 0 1-.07-.17l-.06-.19a1 1 0 0 1-.02-.05l-.05-.19a1 1 0 0 1-.02-.1l-.03-.2a1 1 0 0 1 0-.1L0 19.05A1 1 0 0 1 0 19V5a1 1 0 0 1 0-.05l.01-.18c0-.15.03-.3.07-.45l.04-.14a1.9 1.9 0 0 1 .15-.42l.07-.14C.4 3.5.46 3.4.53 3.3l.1-.15a1 1 0 0 1 .11-.14l.14-.14.14-.14a1 1 0 0 1 .14-.11l.15-.1c.1-.07.2-.14.3-.19l.15-.07a1 1 0 0 1 .17-.07l.19-.06.05-.02.19-.05a1 1 0 0 1 .1-.02l.2-.03a1 1 0 0 1 .1 0L2.95 2A1 1 0 0 1 3 2h1.75V1a1 1 0 0 1 1-1Zm-1 4H2.91l-.1.02-.11.03-.08.03-.1.04a1 1 0 0 1-.04.03 1 1 0 0 1-.02.01l-.09.06-.15.15-.06.09a1 1 0 0 1-.01.02 1 1 0 0 1-.03.05l-.05.1a1 1 0 0 1-.02.06l-.04.16-.01.17V8h15.1V4.91l-.02-.1-.03-.11-.03-.08-.04-.1a.98.98 0 0 1-.03-.04.8.8 0 0 1-.01-.02l-.09-.13h-.01l-.1-.1-.1-.07a.9.9 0 0 1-.02-.01l-.05-.03-.1-.05-.06-.02-.16-.04-.18-.01h-1.71v1a1 1 0 1 1-2 0V4H6.75v1a1 1 0 0 1-2 0V4Zm12.35 6H2v9.09l.02.1.03.11.03.08.04.1.03.04.01.02.06.09.15.15.09.06.02.01.05.03.1.05a1 1 0 0 1 .06.02l.16.04.17.01H16.2l.1-.02.11-.03.08-.03.1-.04.04-.03.02-.01.1-.07.1-.1h.02l.08-.12.04-.08.05-.1.02-.06.04-.14.01-.07V10Z" clip-rule="evenodd"/></svg>