<svg xmlns="http://www.w3.org/2000/svg" width="94" height="123" viewBox="0 0 94 123"><path d="M46.67.33a14.51 14.51 0 0 0-12.88 8h-8.46c-2.09 0-4 1.91-4 4v1.34H4a4.13 4.13 0 0 0-4 4V119c0 2.1 1.9 4 4 4h85.33c2.1 0 4-1.9 4-4V17.67c0-2.1-1.9-4-4-4H72v-1.34c0-2.09-1.9-4-4-4h-8.46c-2.45-4.72-7.23-8-12.87-8Zm0 8a6.57 6.57 0 0 1 6.46 4.96A4.12 4.12 0 0 0 57 16.33h7v5.34H29.33v-5.34h7a4.12 4.12 0 0 0 3.88-3.04 6.57 6.57 0 0 1 6.46-4.96ZM8 21.67h13.33v4c0 2.09 1.91 4 4 4H68c2.1 0 4-1.91 4-4v-4h13.33V115H8V21.67Z"/></svg>
