<svg xmlns="http://www.w3.org/2000/svg" xml:space="preserve" style="fill-rule:evenodd;clip-rule:evenodd;stroke-linejoin:round;stroke-miterlimit:2" viewBox="0 0 24 24"><path d="M21.6 15v4c0 .55-.54 1-1.2 1H3.6c-.66 0-1.2-.45-1.2-1v-4c0-.55-.54-1-1.2-1-.66 0-1.2.45-1.2 1v4c0 1.66 1.61 3 3.6 3h16.8c1.99 0 3.6-1.34 3.6-3v-4c0-.55-.54-1-1.2-1-.66 0-1.2.45-1.2 1Zm-10.8-2.41V3c0-.55.54-1 1.2-1 .66 0 1.2.45 1.2 1v9.59l3.95-3.3a1.38 1.38 0 0 1 1.7 0 .89.89 0 0 1 0 1.42l-6 5a1.38 1.38 0 0 1-.82.29h-.06a1.28 1.28 0 0 1-.82-.3l-6-5a.89.89 0 0 1 0-1.4 1.38 1.38 0 0 1 1.7 0l3.95 3.29Z"/></svg>