<svg xmlns="http://www.w3.org/2000/svg" xml:space="preserve" style="fill-rule:evenodd;clip-rule:evenodd;stroke-linejoin:round;stroke-miterlimit:2" viewBox="0 0 24 24"><path d="M7.32 7.32v-6.3C7.32.46 7.78 0 8.34 0h7.32c.56 0 1.02.46 1.02 1.02v6.3h6.3c.56 0 1.02.46 1.02 1.02v7.32c0 .56-.46 1.02-1.02 1.02h-6.3v6.3c0 .56-.46 1.02-1.02 1.02H8.34c-.56 0-1.02-.46-1.02-1.02v-6.3h-6.3c-.56 0-1.02-.46-1.02-1.02V8.34c0-.56.46-1.02 1.02-1.02h6.3Zm7.32-5.28H9.36v6.3c0 .56-.46 1.02-1.02 1.02h-6.3v5.28h6.3c.56 0 1.02.46 1.02 1.02v6.3h5.28v-6.3c0-.56.46-1.02 1.02-1.02h6.3V9.36h-6.3c-.56 0-1.02-.46-1.02-1.02v-6.3Z"/></svg>