<?xml version="1.0" encoding="UTF-8"?>
<svg style="fill-rule:evenodd;clip-rule:evenodd;stroke-linejoin:round;stroke-miterlimit:2" viewBox="0 0 22 22"
	 version="1.1" xmlns="http://www.w3.org/2000/svg" xmlns:xlink="http://www.w3.org/1999/xlink">
	<path d="M15.14,0 C15.4052165,0 15.6595704,0.10535684 15.8471068,0.292893219 L21.7071068,6.15289322 C21.8946432,6.3404296 22,6.59478351 22,6.86 L22,15.14 C22,15.4052165 21.8946432,15.6595704 21.7071068,15.8471068 L15.8471068,21.7071068 C15.6595704,21.8946432 15.4052165,22 15.14,22 L6.86,22 C6.59478351,22 6.3404296,21.8946432 6.15289322,21.7071068 L0.292893219,15.8471068 C0.10535684,15.6595704 0,15.4052165 0,15.14 L0,6.86 C0,6.59478351 0.10535684,6.3404296 0.292893219,6.15289322 L6.15289322,0.292893219 C6.3404296,0.10535684 6.59478351,0 6.86,0 L15.14,0 Z M14.725,2 L7.274,2 L2,7.274 L2,14.725 L7.275,20 L14.724,20 L20,14.724 L20,7.275 L14.725,2 Z M14.7071068,7.29289322 C15.0976311,7.68341751 15.0976311,8.31658249 14.7071068,8.70710678 L12.415,11 L14.7071068,13.2928932 C15.0976311,13.6834175 15.0976311,14.3165825 14.7071068,14.7071068 C14.5569051,14.8573084 14.3708099,14.9497402 14.1764315,14.9844021 L14.0590314,14.9982669 L13.9409686,14.9982669 C13.705064,14.9844021 13.4731352,14.8873488 13.2928932,14.7071068 L11,12.415 L8.70710678,14.7071068 C8.55690513,14.8573084 8.37080989,14.9497402 8.17643151,14.9844021 L8.05903139,14.9982669 L7.94096861,14.9982669 C7.70506395,14.9844021 7.4731352,14.8873488 7.29289322,14.7071068 C6.90236893,14.3165825 6.90236893,13.6834175 7.29289322,13.2928932 L9.585,11 L7.29289322,8.70710678 C6.90236893,8.31658249 6.90236893,7.68341751 7.29289322,7.29289322 C7.68341751,6.90236893 8.31658249,6.90236893 8.70710678,7.29289322 L11,9.585 L13.2928932,7.29289322 C13.5031755,7.08261091 13.7838093,6.98555753 14.0590314,7.0017331 L14.1764315,7.01559786 C14.3708099,7.05025978 14.5569051,7.14269157 14.7071068,7.29289322 Z"
		  id="Path"></path>
</svg>
