<svg xmlns="http://www.w3.org/2000/svg" xml:space="preserve" style="fill-rule:evenodd;clip-rule:evenodd;stroke-linejoin:round;stroke-miterlimit:2" viewBox="0 0 24 24"><path d="M21.82 8.7v12.03c0 1.8-1.47 3.27-3.27 3.27H5.45a3.27 3.27 0 0 1-3.27-3.27V3.27C2.18 1.47 3.65 0 5.45 0h7.67c.19 0 .37.06.52.15h.02c.07.05.14.1.2.17l7.64 7.64.16.2.01.02c.09.15.14.33.15.52ZM12 2.18H5.46c-.6 0-1.1.49-1.1 1.1v17.45c0 .6.5 1.09 1.1 1.09h13.09c.6 0 1.09-.49 1.09-1.1V9.83h-6.55c-.6 0-1.09-.49-1.09-1.1V2.19Zm6.1 5.46-3.92-3.91v3.9h3.91Z"/></svg>