<svg xmlns="http://www.w3.org/2000/svg"><style><![CDATA[:root>svg{display:none}:root>svg:target{display:block}]]></style><svg id="icon-arrow-down" style="fill-rule:evenodd;clip-rule:evenodd;stroke-linejoin:round;stroke-miterlimit:2" viewBox="0 0 24 24"><path d="M10.5 18.88V1.5a1.5 1.5 0 0 1 3 0v17.38l7.94-7.94a1.5 1.5 0 1 1 2.12 2.12l-10.5 10.5a1.51 1.51 0 0 1-.62.38 1.5 1.5 0 0 1-.4.06h-.08a1.5 1.5 0 0 1-.4-.06 1.51 1.51 0 0 1-.62-.38L.44 13.06a1.5 1.5 0 1 1 2.12-2.12l7.94 7.94Z"/></svg><svg id="icon-arrow-left" style="fill-rule:evenodd;clip-rule:evenodd;stroke-linejoin:round;stroke-miterlimit:2" viewBox="0 0 24 24"><path d="m5.12 13.5 7.94 7.94a1.5 1.5 0 0 1-2.12 2.12L.44 13.06a1.5 1.5 0 0 1-.35-.54 1.5 1.5 0 0 1 0-1.04c.08-.2.2-.38.35-.54L10.94.44a1.5 1.5 0 0 1 2.12 2.12L5.12 10.5H22.5a1.5 1.5 0 0 1 0 3z"/></svg><svg id="icon-arrow-right" style="fill-rule:evenodd;clip-rule:evenodd;stroke-linejoin:round;stroke-miterlimit:2" viewBox="0 0 24 24"><path d="m18.88 10.5-7.94-7.94A1.5 1.5 0 0 1 13.06.44l10.5 10.5c.16.16.27.34.35.54a1.5 1.5 0 0 1 0 1.04c-.08.2-.2.38-.35.54l-10.5 10.5a1.5 1.5 0 0 1-2.12-2.12l7.94-7.94H1.5a1.5 1.5 0 0 1 0-3h17.38Z"/></svg><svg id="icon-bookmark-add" style="fill-rule:evenodd;clip-rule:evenodd;stroke-linejoin:round;stroke-miterlimit:2" viewBox="0 0 24 24"><path d="M8 17.23 1.58 21.8A1 1 0 0 1 0 21V5a3 3 0 0 1 3-3h10a3 3 0 0 1 3 3v16a1 1 0 0 1-1.58.81L8 17.23Zm6 1.83V5a1 1 0 0 0-1-1H3a1 1 0 0 0-1 1v14.06l5.42-3.87a1 1 0 0 1 1.16 0L14 19.06ZM19.5 11V9.5a1 1 0 0 1 2 0V11H23a1 1 0 0 1 0 2h-1.5v1.5a1 1 0 0 1-2 0V13H18a1 1 0 0 1 0-2h1.5Z"/></svg><svg id="icon-bookmark-delete" style="fill-rule:evenodd;clip-rule:evenodd;stroke-linejoin:round;stroke-miterlimit:2" viewBox="0 0 24 24"><path d="M7.5 17.32 1.64 21.9a1 1 0 0 1-1.63-.8V4.93c0-1.7 1.3-3.03 2.86-3.03h9.23a2.95 2.95 0 0 1 2.86 3.03v16.16a1.01 1.01 0 0 1-1.63.8l-5.85-4.57Zm5.45 1.7V4.93c0-.54-.35-1.01-.84-1.01H2.88c-.5 0-.84.47-.84 1.01v14.09l4.83-3.78a1.01 1.01 0 0 1 1.24 0l4.84 3.78Zm7.88-8.45 1.43-1.43a1.01 1.01 0 0 1 1.42 1.43L22.27 12l1.42 1.43a1.01 1.01 0 0 1-1.42 1.43l-1.43-1.43-1.43 1.43a1.01 1.01 0 0 1-1.43-1.43L19.4 12l-1.43-1.43a1.01 1.01 0 0 1 1.43-1.43l1.43 1.43Z"/></svg><svg id="icon-bookmark" style="fill-rule:evenodd;clip-rule:evenodd;stroke-linejoin:round;stroke-miterlimit:2" viewBox="0 0 24 24"><path d="m12 18.27-9.63 5.5a1.82 1.82 0 0 1-1.56.1c-.5-.2-.81-.62-.81-1.07V3.6C0 1.61 2.02 0 4.5 0h15C21.98 0 24 1.61 24 3.6v19.2c0 .45-.31.86-.81 1.07a1.82 1.82 0 0 1-1.56-.1L12 18.28Zm9 2.2V3.6c0-.66-.67-1.2-1.5-1.2h-15c-.83 0-1.5.54-1.5 1.2v16.87l8.13-4.65a1.8 1.8 0 0 1 1.74 0L21 20.47Z"/></svg><svg id="icon-calendar" viewBox="0 0 19.11 22"><path fill="none" stroke="#000" stroke-linecap="round" stroke-linejoin="round" stroke-width="2" d="M3 3H16.1l.2.01.2.03.18.05q.1.02.19.06l.17.09q.1.04.17.1l.16.11.15.13.13.15.11.16q.06.08.1.17l.09.17.06.19.05.19.03.2.01.19v14.2q0 .1-.04.2l-.05.18q-.02.1-.06.19l-.09.17q-.04.09-.1.17l-.11.16-.13.14-.15.14-.16.11q-.08.06-.17.1l-.17.09-.19.06-.19.05-.2.03-.19.01H3l-.2-.01-.19-.03-.19-.05-.18-.06-.18-.09q-.09-.04-.17-.1l-.16-.11-.14-.14-.14-.14-.11-.16q-.06-.08-.1-.17l-.09-.17-.06-.19-.05-.19-.03-.2L1 19V5l.01-.2.03-.2.05-.18q.02-.1.06-.19l.09-.17q.04-.09.1-.17l.11-.16.14-.15.14-.13.16-.11q.08-.06.17-.1l.17-.09.19-.06.19-.05.2-.03L3 3h0Zm10.36-2v4m-7.6-4v4M1 9h17.11"/></svg><svg id="icon-chevron-down" style="fill-rule:evenodd;clip-rule:evenodd;stroke-linejoin:round;stroke-miterlimit:2" viewBox="0 0 24 24"><path d="m12 14.72 9.07-9.08a1.72 1.72 0 0 1 2.43 2.43L13.2 18.36c-.67.67-1.75.67-2.42 0L.5 8.05a1.72 1.72 0 0 1 2.43-2.41L12 14.72Z"/></svg><svg id="icon-chevron-left" style="fill-rule:evenodd;clip-rule:evenodd;stroke-linejoin:round;stroke-miterlimit:2" viewBox="0 0 24 24"><path d="M17.31.17 5.88 11.6a.57.57 0 0 0 0 .8l11.43 11.43a.57.57 0 0 0 .8-.8L7.1 12 18.12.97a.57.57 0 0 0-.81-.8Z" style="fill:#111"/></svg><svg id="icon-chevron-right" style="fill-rule:evenodd;clip-rule:evenodd;stroke-linejoin:round;stroke-miterlimit:2" viewBox="0 0 24 24"><path d="M6.69 23.83 18.12 12.4a.57.57 0 0 0 0-.8L6.69.17a.57.57 0 0 0-.8.8L16.9 12 5.88 23.02a.57.57 0 0 0 .81.81Z" style="fill:#111"/></svg><svg id="icon-close" style="fill-rule:evenodd;clip-rule:evenodd;stroke-linejoin:round;stroke-miterlimit:2" viewBox="0 0 24 24"><path d="M12 9.58 21.07.5a1.72 1.72 0 0 1 2.43 2.43L14.42 12l9.08 9.07a1.72 1.72 0 0 1-2.43 2.43L12 14.42 2.93 23.5A1.72 1.72 0 0 1 .5 21.07L9.58 12 .5 2.93A1.72 1.72 0 0 1 2.93.5L12 9.58Z"/></svg><svg id="icon-copyright" viewBox="0 0 24 24"><path d="M12 2a10.01 10.01 0 0 1 0 20 10.01 10.01 0 0 1 0-20zm0-2a12 12 0 1 0 0 24 12 12 0 0 0 0-24zm0 15.78a3.79 3.79 0 0 1 0-7.56c1.17 0 2.3.52 3.14 1.67l1.85-1.22A6.02 6.02 0 0 0 6 12a6 6 0 0 0 11 3.33l-1.86-1.22A3.8 3.8 0 0 1 12 15.78z"/></svg><svg id="icon-delete-bin" fill-rule="evenodd" clip-rule="evenodd" viewBox="0 0 24 24"><path d="M19 24H5a2 2 0 0 1-2-2V5H2V3h6V1.5C8 .67 8.67 0 9.5 0h5c.82 0 1.5.67 1.5 1.5V3h6v2h-1v17a2 2 0 0 1-2 2zm0-19H5v16.5a.5.5 0 0 0 .5.5h13a.5.5 0 0 0 .5-.5V5zm-9 4a1 1 0 0 0-2 0v9a1 1 0 0 0 2 0V9zm6 0a1 1 0 0 0-2 0v9a1 1 0 0 0 2 0V9zm-2-7h-4v1h4V2z"/></svg><svg id="icon-download" style="fill-rule:evenodd;clip-rule:evenodd;stroke-linejoin:round;stroke-miterlimit:2" viewBox="0 0 24 24"><path d="M21.6 15v4c0 .55-.54 1-1.2 1H3.6c-.66 0-1.2-.45-1.2-1v-4c0-.55-.54-1-1.2-1-.66 0-1.2.45-1.2 1v4c0 1.66 1.61 3 3.6 3h16.8c1.99 0 3.6-1.34 3.6-3v-4c0-.55-.54-1-1.2-1-.66 0-1.2.45-1.2 1Zm-10.8-2.41V3c0-.55.54-1 1.2-1 .66 0 1.2.45 1.2 1v9.59l3.95-3.3a1.38 1.38 0 0 1 1.7 0 .89.89 0 0 1 0 1.42l-6 5c-.15.12-.32.2-.5.25-.1.02-.21.04-.32.04h-.06a1.43 1.43 0 0 1-.32-.04 1.28 1.28 0 0 1-.5-.25l-6-5a.89.89 0 0 1 0-1.42 1.38 1.38 0 0 1 1.7 0l3.95 3.3Z"/></svg><svg id="icon-emergency" style="fill-rule:evenodd;clip-rule:evenodd;stroke-linejoin:round;stroke-miterlimit:2" viewBox="0 0 24 24"><path d="M7.32 7.32v-6.3C7.32.46 7.78 0 8.34 0h7.32c.56 0 1.02.46 1.02 1.02v6.3h6.3c.56 0 1.02.46 1.02 1.02v7.32c0 .56-.46 1.02-1.02 1.02h-6.3v6.3c0 .56-.46 1.02-1.02 1.02H8.34a1.02 1.02 0 0 1-1.02-1.02v-6.3h-6.3A1.02 1.02 0 0 1 0 15.66V8.34c0-.56.46-1.02 1.02-1.02h6.3Zm7.32-5.28H9.36v6.3c0 .56-.46 1.02-1.02 1.02h-6.3v5.28h6.3c.56 0 1.02.46 1.02 1.02v6.3h5.28v-6.3c0-.56.46-1.02 1.02-1.02h6.3V9.36h-6.3a1.02 1.02 0 0 1-1.02-1.02v-6.3Z"/></svg><svg id="icon-external-link" fill="none" stroke="currentColor" stroke-linecap="round" stroke-linejoin="round" stroke-width="2" class="feather feather-external-link" viewBox="0 0 24 24"><path d="M18 13v6a2 2 0 0 1-2 2H5a2 2 0 0 1-2-2V8a2 2 0 0 1 2-2h6m4-3h6v6m-11 5L21 3"/></svg><svg id="icon-facebook" viewBox="0 0 24 24"><path d="M9 8H6v4h3v12h5V12h3.64L18 8h-4V6.33c0-.95.2-1.33 1.12-1.33H18V0h-3.8C10.6 0 9 1.58 9 4.62V8z"/></svg><svg id="icon-file" style="fill-rule:evenodd;clip-rule:evenodd;stroke-linejoin:round;stroke-miterlimit:2" viewBox="0 0 24 24"><path d="M21.82 8.7v12.03A3.27 3.27 0 0 1 18.55 24H5.45a3.27 3.27 0 0 1-3.27-3.27V3.27A3.27 3.27 0 0 1 5.45 0h7.67c.19 0 .37.06.52.15h.02c.07.05.14.1.2.17l7.64 7.64.16.2.01.02c.09.15.14.33.15.52ZM12 2.18H5.46a1.09 1.09 0 0 0-1.1 1.1v17.45a1.09 1.09 0 0 0 1.1 1.09h13.09a1.09 1.09 0 0 0 1.09-1.1V9.83h-6.55A1.09 1.09 0 0 1 12 8.72V2.19Zm6.1 5.46-3.92-3.91v3.9h3.91Z"/></svg><svg id="icon-instagram" viewBox="0 0 24 24"><path d="M12 2.16c3.2 0 3.58.01 4.85.07 3.25.15 4.77 1.7 4.92 4.92.06 1.27.07 1.65.07 4.85 0 3.2-.01 3.58-.07 4.85-.15 3.23-1.66 4.77-4.92 4.92-1.27.06-1.64.07-4.85.07a83 83 0 0 1-4.85-.07c-3.26-.15-4.77-1.7-4.92-4.92A82.98 82.98 0 0 1 2.16 12a84 84 0 0 1 .07-4.85c.15-3.23 1.67-4.77 4.92-4.92A84.4 84.4 0 0 1 12 2.16zM12 0C8.74 0 8.33.01 7.05.07 2.7.27.27 2.7.07 7.05A84.29 84.29 0 0 0 0 12c0 3.26.01 3.67.07 4.95.2 4.36 2.62 6.78 6.98 6.98 1.28.06 1.7.07 4.95.07 3.26 0 3.67-.01 4.95-.07 4.35-.2 6.78-2.62 6.98-6.98.06-1.28.07-1.7.07-4.95 0-3.26-.01-3.67-.07-4.95C23.73 2.7 21.3.27 16.95.07A84.33 84.33 0 0 0 12 0zm0 5.84a6.16 6.16 0 1 0 0 12.32 6.16 6.16 0 0 0 0-12.32zM12 16a4 4 0 1 1 0-8 4 4 0 0 1 0 8zm6.4-11.85a1.44 1.44 0 1 0 0 2.89 1.44 1.44 0 0 0 0-2.89z"/></svg><svg id="icon-linkedin" viewBox="0 0 24 24"><path d="M4.98 3.5C4.98 4.88 3.87 6 2.5 6S.02 4.88.02 3.5 1.13 1 2.5 1s2.48 1.12 2.48 2.5zM5 8H0v16h5V8zm7.98 0H8.01v16h4.97v-8.4c0-4.67 6.03-5.05 6.03 0V24H24V13.87c0-7.88-8.92-7.6-11.02-3.71V8z"/></svg><svg id="icon-location-pin" viewBox="0 0 24 24"><path d="M12 2c3.2 0 6 2.62 6 5.6 0 3.1-2.5 7.13-6 12.66C8.5 14.73 6 10.7 6 7.6 6 4.62 8.8 2 12 2m0-2C7.8 0 4 3.4 4 7.6c0 4.2 3.47 9.21 8 16.4 4.53-7.19 8-12.2 8-16.4C20 3.4 16.2 0 12 0zm0 11a3 3 0 1 1 0-6 3 3 0 0 1 0 6z"/></svg><svg id="icon-location" viewBox="0 0 24 24"><path d="M12 2c3.2 0 6 2.62 6 5.6 0 3.1-2.5 7.13-6 12.66C8.5 14.73 6 10.7 6 7.6 6 4.62 8.8 2 12 2m0-2C7.8 0 4 3.4 4 7.6c0 4.2 3.47 9.21 8 16.4 4.53-7.19 8-12.2 8-16.4C20 3.4 16.2 0 12 0zm0 11a3 3 0 1 1 0-6 3 3 0 0 1 0 6z"/></svg><svg id="icon-mail" style="fill-rule:evenodd;clip-rule:evenodd;stroke-linejoin:round;stroke-miterlimit:2" viewBox="0 0 24 24"><path d="M3.27 2.18A3.28 3.28 0 0 0 0 5.45v13.1c0 1.8 1.47 3.27 3.27 3.27h17.46c1.8 0 3.27-1.47 3.27-3.27V5.45c0-1.8-1.47-3.27-3.27-3.27H3.27ZM2.18 7.55v11c0 .6.5 1.09 1.1 1.09h17.45c.6 0 1.09-.5 1.09-1.1V7.56l-9.2 6.44a1.1 1.1 0 0 1-1.25 0L2.18 7.54ZM21.7 4.97a1.1 1.1 0 0 0-.97-.6H3.27c-.42 0-.8.24-.97.6l9.7 6.79 9.7-6.8Z"/></svg><svg id="icon-map" viewBox="0 0 24 22"><path fill="none" stroke="#000" stroke-linecap="round" stroke-linejoin="round" stroke-width="2" d="M1 5v16l7-4 8 4 7-4V1l-7 4-8-4-7 4h0Zm7-4v16m8-12v16"/></svg><svg id="icon-menu" style="fill-rule:evenodd;clip-rule:evenodd;stroke-linejoin:round;stroke-miterlimit:2" viewBox="0 0 24 24"><path d="M1.2 20.4h21.6a1.2 1.2 0 0 0 0-2.4H1.2a1.2 1.2 0 0 0 0 2.4Zm0-7.2h21.6a1.2 1.2 0 0 0 0-2.4H1.2a1.2 1.2 0 0 0 0 2.4Zm0-7.2h21.6a1.2 1.2 0 0 0 0-2.4H1.2a1.2 1.2 0 0 0 0 2.4Z"/></svg><svg id="icon-message" style="fill-rule:evenodd;clip-rule:evenodd;stroke-linejoin:round;stroke-miterlimit:2" viewBox="0 0 24 24"><path d="M24 15.6v-12A3.6 3.6 0 0 0 20.4 0H3.6A3.6 3.6 0 0 0 0 3.6v19.2a1.2 1.2 0 0 0 2.05.85L6.5 19.2h13.9a3.6 3.6 0 0 0 3.6-3.6Zm-2.4 0a1.2 1.2 0 0 1-1.2 1.2H6c-.32 0-.62.13-.85.35L2.4 19.9V3.6a1.2 1.2 0 0 1 1.2-1.2h16.8a1.2 1.2 0 0 1 1.2 1.2v12Z"/></svg><svg id="icon-minus" style="fill-rule:evenodd;clip-rule:evenodd;stroke-linejoin:round;stroke-miterlimit:2" viewBox="0 0 24 24"><path d="M1.5 13.5h21a1.5 1.5 0 0 0 0-3h-21a1.5 1.5 0 0 0 0 3Z"/></svg><svg id="icon-option" style="fill-rule:evenodd;clip-rule:evenodd;stroke-linejoin:round;stroke-miterlimit:2" viewBox="0 0 20 20"><path d="M20 11.35v-2.7c-1.38-.49-2.25-.62-2.68-1.68-.44-1.06.08-1.78.7-3.09l-1.9-1.9c-1.3.61-2.03 1.14-3.09.7-1.06-.44-1.2-1.31-1.68-2.68h-2.7c-.48 1.36-.62 2.24-1.68 2.68-1.06.44-1.78-.08-3.09-.7l-1.9 1.9c.62 1.3 1.14 2.03.7 3.09C2.24 8.03 1.36 8.17 0 8.65v2.7c1.36.48 2.24.62 2.68 1.68.44 1.07-.1 1.8-.7 3.09l1.9 1.9c1.3-.62 2.03-1.14 3.09-.7 1.06.44 1.2 1.31 1.68 2.68h2.7c.48-1.36.62-2.24 1.69-2.68 1.05-.44 1.76.08 3.08.7l1.9-1.9c-.62-1.3-1.14-2.03-.7-3.09.44-1.06 1.32-1.2 2.68-1.68Zm-10 1.98a3.33 3.33 0 1 1 0-6.66 3.33 3.33 0 0 1 0 6.66Z" style="fill-rule:nonzero"/></svg><svg id="icon-person-add" viewBox="0 0 24 24"><path d="M9.6 3.7c-1.15 1.94-.63 5.23 1.43 9.03.93 1.7.7 3.02.33 3.81-.98 2.18-3.67 2.8-6.52 3.46-1.96.45-1.84.87-1.84 4H1v-1.24c0-2.52.2-3.98 3.18-4.66 3.36-.78 6.69-1.48 5.09-4.42C4.54 4.95 7.92 0 13 0c3.32 0 5.97 2.12 5.97 6.17 0 3.55-1.95 6.83-2.38 7.83h-2.12c.4-1.54 2.5-4.37 2.5-7.84C16.97 1 11.1 1.17 9.6 3.7zM23 19h-3v-3h-2v3h-3v2h3v3h2v-3h3v-2z"/></svg><svg id="icon-person-remove" viewBox="0 0 24 24"><path d="M9.6 3.7c-1.15 1.94-.63 5.23 1.43 9.03.93 1.7.7 3.02.33 3.81-.98 2.18-3.67 2.8-6.52 3.46-1.96.45-1.84.87-1.84 4H1v-1.24c0-2.52.2-3.98 3.18-4.66 3.36-.78 6.69-1.48 5.09-4.42C4.54 4.95 7.92 0 13 0c3.32 0 5.97 2.12 5.97 6.17 0 3.55-1.95 6.83-2.38 7.83h-2.12c.4-1.54 2.5-4.37 2.5-7.84C16.97 1 11.1 1.17 9.6 3.7zM23 19h-8v2h8v-2z"/></svg><svg id="icon-phone" style="fill-rule:evenodd;clip-rule:evenodd;stroke-linejoin:round;stroke-miterlimit:2" viewBox="0 0 24 24"><path d="M24 17.46v3.28a3.29 3.29 0 0 1-3.6 3.29 22.78 22.78 0 0 1-9.94-3.53 22.46 22.46 0 0 1-6.9-6.91A22.82 22.82 0 0 1 0 3.59 3.29 3.29 0 0 1 3.3 0h3.28a3.3 3.3 0 0 1 3.29 2.84c.12.97.36 1.92.7 2.84a3.29 3.29 0 0 1-.74 3.47l-.79.79a16.45 16.45 0 0 0 5.03 5.03l.8-.8a3.29 3.29 0 0 1 3.46-.74c.92.35 1.87.58 2.85.71A3.29 3.29 0 0 1 24 17.46Zm-2.2 0v3.29a1.1 1.1 0 0 1-1.19 1.1 20.59 20.59 0 0 1-8.96-3.2 20.3 20.3 0 0 1-6.25-6.24 20.6 20.6 0 0 1-3.2-9.04A1.1 1.1 0 0 1 3.29 2.2h3.3a1.1 1.1 0 0 1 1.1.95c.14 1.12.42 2.24.82 3.3.15.41.05.86-.25 1.17L6.88 8.99a1.1 1.1 0 0 0-.18 1.32 18.65 18.65 0 0 0 6.99 7c.43.24.97.16 1.32-.19l1.39-1.39c.3-.3.75-.4 1.15-.24 1.07.4 2.19.68 3.32.83.55.07.95.55.94 1.1v.04Z"/></svg><svg id="icon-play" style="fill-rule:evenodd;clip-rule:evenodd;stroke-linejoin:round;stroke-miterlimit:2" viewBox="0 0 20 20"><path d="m0 0 20 10L0 20V0Z" style="fill-rule:nonzero"/></svg><svg id="icon-plus" style="fill-rule:evenodd;clip-rule:evenodd;stroke-linejoin:round;stroke-miterlimit:2" viewBox="0 0 24 24"><path d="M10.5 10.5v-9a1.5 1.5 0 0 1 3 0v9h9a1.5 1.5 0 0 1 0 3h-9v9a1.5 1.5 0 0 1-3 0v-9h-9a1.5 1.5 0 0 1 0-3h9Z"/></svg><svg id="icon-printer" style="fill-rule:evenodd;clip-rule:evenodd;stroke-linejoin:round;stroke-miterlimit:2" viewBox="0 0 24 24"><path d="M4.36 7.64V1.09A1.09 1.09 0 0 1 5.46 0h13.09a1.09 1.09 0 0 1 1.09 1.1v6.54h1.09A3.27 3.27 0 0 1 24 10.9v5.45a3.27 3.27 0 0 1-3.27 3.28h-1.1v3.27A1.09 1.09 0 0 1 18.56 24H5.45a1.09 1.09 0 0 1-1.09-1.1v-3.26H3.27A3.27 3.27 0 0 1 0 16.36v-5.45a3.27 3.27 0 0 1 3.27-3.27h1.1Zm2.18 7.63v6.55h10.91v-6.55H6.55Zm13.1 2.19h1.09c.6 0 1.09-.5 1.09-1.1v-5.45c0-.6-.49-1.1-1.1-1.1H3.28c-.6 0-1.09.5-1.09 1.1v5.45c0 .6.49 1.1 1.1 1.1h1.08v-3.28a1.09 1.09 0 0 1 1.1-1.09h13.09a1.09 1.09 0 0 1 1.09 1.1v3.26Zm-2.19-9.82V2.18H6.55v5.46h10.9Z"/></svg><svg id="icon-search" style="fill-rule:evenodd;clip-rule:evenodd;stroke-linejoin:round;stroke-miterlimit:2" viewBox="0 0 24 24"><path d="M17.54 19.24a10.75 10.75 0 0 1-6.74 2.36 10.8 10.8 0 1 1 8.44-4.06l4.4 4.41a1.2 1.2 0 0 1-1.69 1.7l-4.4-4.41Zm-.69-2.61a8.4 8.4 0 1 0-.22.22 1.16 1.16 0 0 1 .22-.22Z"/></svg><svg id="icon-twitter" viewBox="0 0 24 24"><path d="M24 4.56a9.83 9.83 0 0 1-2.83.77 4.93 4.93 0 0 0 2.17-2.72 9.86 9.86 0 0 1-3.13 1.2 4.92 4.92 0 0 0-3.6-1.56 4.93 4.93 0 0 0-4.8 6.04A13.98 13.98 0 0 1 1.68 3.15 4.93 4.93 0 0 0 3.2 9.72a4.9 4.9 0 0 1-2.23-.61A4.93 4.93 0 0 0 4.91 14a4.93 4.93 0 0 1-2.22.08 4.93 4.93 0 0 0 4.6 3.42A9.9 9.9 0 0 1 0 19.54a13.94 13.94 0 0 0 7.55 2.21c9.14 0 14.3-7.72 14-14.64A10.03 10.03 0 0 0 24 4.56z"/></svg><svg id="icon-user-plus" viewBox="0 0 20 16.67"><path fill="none" stroke="#000" stroke-linecap="round" stroke-linejoin="round" stroke-width="1.67" d="M13.33 15.83v-1.66A3.33 3.33 0 0 0 10 10.83H4.17a3.33 3.33 0 0 0-3.34 3.34v1.66M7.08 7.5a3.33 3.33 0 1 0 0-6.67 3.33 3.33 0 0 0 0 6.67ZM16.67 5v5m2.5-2.5h-5"/></svg><svg id="icon-youtube" viewBox="0 0 24 24"><path d="M19.61 3.18c-3.6-.24-11.63-.24-15.23 0C.48 3.45.03 5.8 0 12c.03 6.18.48 8.55 4.38 8.82 3.6.24 11.63.24 15.23 0 3.9-.27 4.36-2.62 4.39-8.82-.03-6.18-.48-8.55-4.38-8.82zM9 16V8l8 4-8 4z"/></svg></svg>