<svg xmlns="http://www.w3.org/2000/svg"><style>:root>svg{display:none}:root>svg:target{display:block}</style><svg style="fill-rule:evenodd;clip-rule:evenodd;stroke-linejoin:round;stroke-miterlimit:2" id="icon-arrow-down" viewBox="0 0 24 24"><path d="M10.5 18.879V1.5a1.5 1.5 0 0 1 3 0v17.379l7.94-7.939a1.5 1.5 0 1 1 2.121 2.121l-10.5 10.5a1.51 1.51 0 0 1-.623.375l-.004.001c-.127.038-.26.06-.398.063l-.036.001-.036-.001a1.498 1.498 0 0 1-.398-.063l-.004-.001a1.51 1.51 0 0 1-.623-.375l-10.5-10.5A1.5 1.5 0 1 1 2.56 10.94l7.94 7.939Z"/></svg><svg style="fill-rule:evenodd;clip-rule:evenodd;stroke-linejoin:round;stroke-miterlimit:2" id="icon-arrow-left" viewBox="0 0 24 24"><path d="m5.121 13.5 7.94 7.94a1.501 1.501 0 0 1-2.122 2.121l-10.5-10.5a1.497 1.497 0 0 1-.345-.537l-.001-.004a1.494 1.494 0 0 1 0-1.04l.001-.004c.073-.196.188-.38.345-.537l10.5-10.5a1.501 1.501 0 0 1 2.122 2.121l-7.94 7.94H22.5a1.5 1.5 0 0 1 0 3z"/></svg><svg style="fill-rule:evenodd;clip-rule:evenodd;stroke-linejoin:round;stroke-miterlimit:2" id="icon-arrow-right" viewBox="0 0 24 24"><path d="m18.879 10.5-7.94-7.94A1.501 1.501 0 0 1 13.061.439l10.5 10.5c.157.157.272.341.345.537l.001.004a1.494 1.494 0 0 1 0 1.04l-.001.004c-.073.196-.188.38-.345.537l-10.5 10.5a1.501 1.501 0 0 1-2.122-2.121l7.94-7.94H1.5a1.5 1.5 0 0 1 0-3h17.379Z"/></svg><svg style="fill-rule:evenodd;clip-rule:evenodd;stroke-linejoin:round;stroke-miterlimit:2" id="icon-bookmark-add" viewBox="0 0 24 24"><path d="m8 17.229-6.419 4.585A1 1 0 0 1 0 21V5a3 3 0 0 1 3-3h10a3 3 0 0 1 3 3v16a.999.999 0 0 1-1.581.814L8 17.229Zm6 1.828V5a1 1 0 0 0-1-1H3a1 1 0 0 0-1 1v14.057l5.419-3.871a1 1 0 0 1 1.162 0L14 19.057ZM19.5 11V9.5a1 1 0 0 1 2 0V11H23a1 1 0 0 1 0 2h-1.5v1.5a1 1 0 0 1-2 0V13H18a1 1 0 0 1 0-2h1.5Z"/></svg><svg style="fill-rule:evenodd;clip-rule:evenodd;stroke-linejoin:round;stroke-miterlimit:2" id="icon-bookmark-delete" viewBox="0 0 24 24"><path d="m7.493 17.322-5.842 4.564A1.009 1.009 0 0 1 .02 21.09V4.93c0-1.697 1.304-3.03 2.856-3.03h9.235c1.552 0 2.857 1.333 2.857 3.03v16.16a1.012 1.012 0 0 1-1.632.796l-5.843-4.564Zm5.455 1.697V4.93c0-.535-.349-1.01-.837-1.01H2.876c-.488 0-.836.475-.836 1.01v14.089l4.832-3.775a1.01 1.01 0 0 1 1.243 0l4.833 3.775Zm7.88-8.447 1.429-1.429a1.01 1.01 0 0 1 1.428 1.429L22.257 12l1.428 1.428a1.01 1.01 0 0 1-1.428 1.429l-1.429-1.429-1.428 1.429a1.012 1.012 0 0 1-1.429-1.429L19.4 12l-1.429-1.428A1.012 1.012 0 0 1 19.4 9.143l1.428 1.429Z"/></svg><svg style="fill-rule:evenodd;clip-rule:evenodd;stroke-linejoin:round;stroke-miterlimit:2" id="icon-bookmark" viewBox="0 0 24 24"><path d="m12 18.275-9.628 5.501a1.817 1.817 0 0 1-1.558.091C.314 23.661 0 23.25 0 22.8V3.6C0 1.612 2.015 0 4.5 0h15C21.985 0 24 1.612 24 3.6v19.2c0 .45-.314.861-.814 1.067a1.817 1.817 0 0 1-1.558-.091L12 18.275Zm9 2.193V3.6c0-.663-.672-1.2-1.5-1.2h-15c-.828 0-1.5.537-1.5 1.2v16.868l8.128-4.644a1.808 1.808 0 0 1 1.744 0L21 20.468Z"/></svg><svg id="icon-calendar" viewBox="0 0 19.111 22"><path d="M2.999 3h13.113q.098 0 .196.01t.194.028q.096.02.19.048.094.029.185.066.09.038.177.084.087.046.169.1.081.055.157.118.076.062.146.131.07.07.131.146.063.076.117.157.055.082.101.169.046.086.084.177.038.09.066.185.029.094.048.19t.029.194q.01.098.01.196v14.002q0 .098-.01.196t-.03.194q-.018.096-.047.19-.028.094-.066.185-.038.09-.084.177-.046.087-.1.169-.055.081-.118.157-.062.076-.131.146-.07.069-.146.131-.076.063-.157.117-.082.055-.169.101-.086.046-.177.084-.09.037-.185.066-.094.028-.19.048-.096.019-.194.028-.098.01-.196.01H3q-.098 0-.196-.01t-.194-.028q-.096-.02-.19-.048-.094-.029-.185-.066-.09-.038-.177-.084-.087-.046-.169-.1-.081-.056-.157-.118-.076-.062-.146-.131-.069-.07-.131-.146-.063-.076-.117-.157-.055-.082-.101-.169-.046-.086-.084-.177-.037-.09-.066-.185-.028-.094-.048-.19-.019-.096-.028-.194Q1 19.099 1 19V4.999q0-.098.01-.196t.028-.194q.02-.096.048-.19.029-.094.066-.185.038-.09.084-.177.046-.087.1-.169.055-.081.118-.157.062-.076.131-.146.07-.069.146-.131.076-.063.157-.117.082-.055.169-.101.086-.046.177-.084.09-.037.185-.066.094-.028.19-.048.096-.019.194-.028Q2.901 3 3 3h0Zm10.359-2v4M5.753 1v4M1 9h17.111" fill="none" stroke="#000" stroke-width="2" stroke-linecap="round" stroke-linejoin="round"/></svg><svg style="fill-rule:evenodd;clip-rule:evenodd;stroke-linejoin:round;stroke-miterlimit:2" id="icon-chevron-down" viewBox="0 0 24 24"><path d="m12 14.718 9.074-9.073a1.715 1.715 0 0 1 2.424 2.424L13.212 18.355c-.669.67-1.755.67-2.424 0L.502 8.069a1.715 1.715 0 0 1 2.424-2.424L12 14.718Z"/></svg><svg style="fill-rule:evenodd;clip-rule:evenodd;stroke-linejoin:round;stroke-miterlimit:2" id="icon-chevron-left" viewBox="0 0 24 24"><path d="M17.31.167 5.882 11.596a.57.57 0 0 0 0 .808L17.31 23.833a.572.572 0 0 0 .808-.808L7.094 12 18.118.975a.572.572 0 0 0-.808-.808Z" style="fill:#111"/></svg><svg style="fill-rule:evenodd;clip-rule:evenodd;stroke-linejoin:round;stroke-miterlimit:2" id="icon-chevron-right" viewBox="0 0 24 24"><path d="m6.69 23.833 11.428-11.429a.57.57 0 0 0 0-.808L6.69.167a.572.572 0 0 0-.808.808L16.906 12 5.882 23.025a.572.572 0 0 0 .808.808Z" style="fill:#111"/></svg><svg style="fill-rule:evenodd;clip-rule:evenodd;stroke-linejoin:round;stroke-miterlimit:2" id="icon-close" viewBox="0 0 24 24"><path d="M12 9.576 21.074.502a1.715 1.715 0 0 1 2.424 2.424L14.424 12l9.074 9.074a1.715 1.715 0 0 1-2.424 2.424L12 14.424l-9.074 9.074a1.715 1.715 0 0 1-2.424-2.424L9.576 12 .502 2.926A1.715 1.715 0 0 1 2.926.502L12 9.576Z"/></svg><svg id="icon-copyright" viewBox="0 0 24 24"><path d="M12 2c5.514 0 10 4.486 10 10s-4.486 10-10 10S2 17.514 2 12 6.486 2 12 2zm0-2C5.373 0 0 5.373 0 12s5.373 12 12 12 12-5.373 12-12S18.627 0 12 0zm0 15.781c-2.084 0-3.781-1.696-3.781-3.781S9.915 8.219 12 8.219c1.172 0 2.306.523 3.136 1.669l1.857-1.218C15.712 6.844 13.86 6 12 6c-3.308 0-6 2.692-6 6s2.691 6 6 6c1.881 0 3.724-.859 4.994-2.67l-1.857-1.218c-.828 1.14-1.959 1.669-3.137 1.669z"/></svg><svg fill-rule="evenodd" clip-rule="evenodd" id="icon-delete-bin" viewBox="0 0 24 24"><path d="M19 24H5a2 2 0 0 1-2-2V5H2V3h6V1.5C8 .673 8.673 0 9.5 0h5c.825 0 1.5.671 1.5 1.5V3h6v2h-1v17a2 2 0 0 1-2 2zm0-19H5v16.5a.5.5 0 0 0 .5.5h13a.5.5 0 0 0 .5-.5V5zm-9 4a1 1 0 0 0-2 0v9a1 1 0 0 0 2 0V9zm6 0a1 1 0 0 0-2 0v9a1 1 0 0 0 2 0V9zm-2-7h-4v1h4V2z"/></svg><svg style="fill-rule:evenodd;clip-rule:evenodd;stroke-linejoin:round;stroke-miterlimit:2" id="icon-download" viewBox="0 0 24 24"><path d="M21.6 15v4c0 .552-.537 1-1.2 1H3.6c-.663 0-1.2-.448-1.2-1v-4c0-.552-.538-1-1.2-1-.662 0-1.2.448-1.2 1v4c0 1.657 1.612 3 3.6 3h16.8c1.988 0 3.6-1.343 3.6-3v-4c0-.552-.538-1-1.2-1-.662 0-1.2.448-1.2 1Zm-10.8-2.414V3c0-.552.538-1 1.2-1 .662 0 1.2.448 1.2 1v9.586l3.951-3.293c.469-.39 1.229-.39 1.698 0 .468.39.468 1.024 0 1.414l-6 5c-.145.12-.316.203-.499.25l-.003.001c-.101.025-.208.04-.318.042h-.058a1.434 1.434 0 0 1-.318-.042l-.003-.001a1.277 1.277 0 0 1-.499-.25l-6-5c-.468-.39-.468-1.024 0-1.414.469-.39 1.229-.39 1.698 0l3.951 3.293Z"/></svg><svg style="fill-rule:evenodd;clip-rule:evenodd;stroke-linejoin:round;stroke-miterlimit:2" id="icon-emergency" viewBox="0 0 24 24"><path d="M7.321 7.321V1.019C7.321.456 7.777 0 8.34 0h7.32c.563 0 1.019.456 1.019 1.019v6.302h6.302c.563 0 1.019.456 1.019 1.019v7.32c0 .563-.456 1.019-1.019 1.019h-6.302v6.302c0 .563-.456 1.019-1.019 1.019H8.34a1.019 1.019 0 0 1-1.019-1.019v-6.302H1.019A1.019 1.019 0 0 1 0 15.66V8.34c0-.563.456-1.019 1.019-1.019h6.302Zm7.321-5.283H9.358V8.34c0 .562-.456 1.018-1.018 1.018H2.038v5.284H8.34c.562 0 1.018.456 1.018 1.018v6.302h5.284V15.66c0-.562.456-1.018 1.018-1.018h6.302V9.358H15.66a1.018 1.018 0 0 1-1.018-1.018V2.038Z"/></svg><svg fill="none" stroke="currentColor" stroke-width="2" stroke-linecap="round" stroke-linejoin="round" class="feather feather-external-link" id="icon-external-link" viewBox="0 0 24 24"><path d="M18 13v6a2 2 0 0 1-2 2H5a2 2 0 0 1-2-2V8a2 2 0 0 1 2-2h6m4-3h6v6m-11 5L21 3"/></svg><svg id="icon-facebook" viewBox="0 0 24 24"><path d="M9 8H6v4h3v12h5V12h3.642L18 8h-4V6.333C14 5.378 14.192 5 15.115 5H18V0h-3.808C10.596 0 9 1.583 9 4.615V8z"/></svg><svg style="fill-rule:evenodd;clip-rule:evenodd;stroke-linejoin:round;stroke-miterlimit:2" id="icon-file" viewBox="0 0 24 24"><path d="M21.818 8.7v12.027A3.273 3.273 0 0 1 18.545 24H5.455a3.273 3.273 0 0 1-3.273-3.273V3.273A3.273 3.273 0 0 1 5.455 0h7.663c.189.005.367.058.52.147l.019.011c.074.045.143.099.205.162l7.637 7.636c.062.062.116.131.161.205l.011.019c.089.154.142.331.147.52ZM12 2.182H5.455a1.09 1.09 0 0 0-1.091 1.091v17.454a1.09 1.09 0 0 0 1.091 1.091h13.09a1.09 1.09 0 0 0 1.091-1.091V9.818h-6.545A1.09 1.09 0 0 1 12 8.727V2.182Zm6.094 5.454-3.912-3.911v3.911h3.912Z"/></svg><svg id="icon-instagram" viewBox="0 0 24 24"><path d="M12 2.163c3.204 0 3.584.012 4.85.07 3.252.148 4.771 1.691 4.919 4.919.058 1.265.069 1.645.069 4.849 0 3.205-.012 3.584-.069 4.849-.149 3.225-1.664 4.771-4.919 4.919-1.266.058-1.644.07-4.85.07-3.204 0-3.584-.012-4.849-.07-3.26-.149-4.771-1.699-4.919-4.92-.058-1.265-.07-1.644-.07-4.849 0-3.204.013-3.583.07-4.849.149-3.227 1.664-4.771 4.919-4.919 1.266-.057 1.645-.069 4.849-.069zM12 0C8.741 0 8.333.014 7.053.072 2.695.272.273 2.69.073 7.052.014 8.333 0 8.741 0 12c0 3.259.014 3.668.072 4.948.2 4.358 2.618 6.78 6.98 6.98C8.333 23.986 8.741 24 12 24c3.259 0 3.668-.014 4.948-.072 4.354-.2 6.782-2.618 6.979-6.98.059-1.28.073-1.689.073-4.948 0-3.259-.014-3.667-.072-4.947-.196-4.354-2.617-6.78-6.979-6.98C15.668.014 15.259 0 12 0zm0 5.838a6.162 6.162 0 1 0 0 12.324 6.162 6.162 0 0 0 0-12.324zM12 16a4 4 0 1 1 0-8 4 4 0 0 1 0 8zm6.406-11.845a1.44 1.44 0 1 0 0 2.881 1.44 1.44 0 0 0 0-2.881z"/></svg><svg id="icon-linkedin" viewBox="0 0 24 24"><path d="M4.98 3.5C4.98 4.881 3.87 6 2.5 6S.02 4.881.02 3.5C.02 2.12 1.13 1 2.5 1s2.48 1.12 2.48 2.5zM5 8H0v16h5V8zm7.982 0H8.014v16h4.969v-8.399c0-4.67 6.029-5.052 6.029 0V24H24V13.869c0-7.88-8.922-7.593-11.018-3.714V8z"/></svg><svg id="icon-location-pin" viewBox="0 0 24 24"><path d="M12 2c3.196 0 6 2.618 6 5.602 0 3.093-2.493 7.132-6 12.661-3.507-5.529-6-9.568-6-12.661C6 4.618 8.804 2 12 2m0-2C7.802 0 4 3.403 4 7.602 4 11.8 7.469 16.812 12 24c4.531-7.188 8-12.2 8-16.398C20 3.403 16.199 0 12 0zm0 11a3 3 0 1 1 0-6 3 3 0 0 1 0 6z"/></svg><svg id="icon-location" viewBox="0 0 24 24"><path d="M12 2c3.196 0 6 2.618 6 5.602 0 3.093-2.493 7.132-6 12.661-3.507-5.529-6-9.568-6-12.661C6 4.618 8.804 2 12 2m0-2C7.802 0 4 3.403 4 7.602 4 11.8 7.469 16.812 12 24c4.531-7.188 8-12.2 8-16.398C20 3.403 16.199 0 12 0zm0 11a3 3 0 1 1 0-6 3 3 0 0 1 0 6z"/></svg><svg style="fill-rule:evenodd;clip-rule:evenodd;stroke-linejoin:round;stroke-miterlimit:2" id="icon-mail" viewBox="0 0 24 24"><path d="M3.273 2.182A3.283 3.283 0 0 0 0 5.455v13.09c0 1.8 1.473 3.273 3.273 3.273h17.454c1.8 0 3.273-1.473 3.273-3.273V5.455c0-1.8-1.473-3.273-3.273-3.273H3.273ZM2.182 7.55v10.995c0 .6.491 1.091 1.091 1.091h17.454c.6 0 1.091-.491 1.091-1.091V7.55l-9.192 6.435a1.092 1.092 0 0 1-1.252 0L2.182 7.55Zm19.521-2.583a1.095 1.095 0 0 0-.976-.603H3.273c-.425 0-.796.246-.976.603L12 11.759l9.703-6.792Z"/></svg><svg id="icon-map" viewBox="0 0 24 22"><path d="M1 5v16l7-4 8 4 7-4V1l-7 4-8-4-7 4h0Zm7-4v16m8-12v16" fill="none" stroke="#000" stroke-width="2" stroke-linecap="round" stroke-linejoin="round"/></svg><svg style="fill-rule:evenodd;clip-rule:evenodd;stroke-linejoin:round;stroke-miterlimit:2" id="icon-menu" viewBox="0 0 24 24"><path d="M1.2 20.4h21.6a1.201 1.201 0 0 0 0-2.4H1.2a1.201 1.201 0 0 0 0 2.4Zm0-7.2h21.6a1.201 1.201 0 0 0 0-2.4H1.2a1.201 1.201 0 0 0 0 2.4Zm0-7.2h21.6a1.201 1.201 0 0 0 0-2.4H1.2a1.201 1.201 0 0 0 0 2.4Z"/></svg><svg style="fill-rule:evenodd;clip-rule:evenodd;stroke-linejoin:round;stroke-miterlimit:2" id="icon-message" viewBox="0 0 24 24"><path d="M24 15.6v-12A3.6 3.6 0 0 0 20.4 0H3.6A3.6 3.6 0 0 0 0 3.6v19.2a1.2 1.2 0 0 0 2.049.849L6.497 19.2H20.4a3.6 3.6 0 0 0 3.6-3.6Zm-2.4 0a1.2 1.2 0 0 1-1.2 1.2H6c-.318 0-.623.126-.849.351L2.4 19.903V3.6a1.2 1.2 0 0 1 1.2-1.2h16.8a1.2 1.2 0 0 1 1.2 1.2v12Z"/></svg><svg style="fill-rule:evenodd;clip-rule:evenodd;stroke-linejoin:round;stroke-miterlimit:2" id="icon-minus" viewBox="0 0 24 24"><path d="M1.5 13.5h21a1.5 1.5 0 0 0 0-3h-21a1.5 1.5 0 0 0 0 3Z"/></svg><svg style="fill-rule:evenodd;clip-rule:evenodd;stroke-linejoin:round;stroke-miterlimit:2" id="icon-option" viewBox="0 0 20 20"><path d="M20 11.347V8.653c-1.376-.489-2.245-.626-2.682-1.682V6.97c-.44-1.059.083-1.778.705-3.089l-1.904-1.904c-1.301.618-2.027 1.146-3.089.706h-.001C11.972 2.244 11.833 1.369 11.347 0H8.653c-.485 1.363-.624 2.243-1.682 2.683H6.97c-1.059.44-1.777-.082-3.089-.706L1.977 3.881c.621 1.307 1.146 2.028.706 3.089C2.243 8.029 1.363 8.168 0 8.653v2.694c1.36.483 2.243.624 2.683 1.682.441 1.069-.095 1.805-.706 3.089l1.904 1.905c1.302-.619 2.028-1.145 3.089-.705h.001c1.058.438 1.197 1.315 1.682 2.682h2.694c.485-1.363.625-2.242 1.689-2.685h.001c1.051-.437 1.766.084 3.081.709l1.905-1.905c-.62-1.302-1.146-2.027-.707-3.088.439-1.059 1.323-1.2 2.684-1.684Zm-10 1.986a3.333 3.333 0 1 1 0-6.665 3.333 3.333 0 0 1 0 6.665Z" style="fill-rule:nonzero"/></svg><svg id="icon-person-add" viewBox="0 0 24 24"><path d="M9.602 3.7c-1.154 1.937-.635 5.227 1.424 9.025.93 1.712.697 3.02.338 3.815-.982 2.178-3.675 2.799-6.525 3.456C2.875 20.45 3 20.866 3 24H1.005L1 22.759c0-2.52.199-3.975 3.178-4.663 3.365-.777 6.688-1.473 5.09-4.418C4.535 4.949 7.918 0 13 0c3.321 0 5.97 2.117 5.97 6.167 0 3.555-1.949 6.833-2.383 7.833h-2.115c.392-1.536 2.499-4.366 2.499-7.842 0-5.153-5.867-4.985-7.369-2.458zM23 19h-3v-3h-2v3h-3v2h3v3h2v-3h3v-2z"/></svg><svg id="icon-person-remove" viewBox="0 0 24 24"><path d="M9.602 3.7c-1.154 1.937-.635 5.227 1.424 9.025.93 1.712.697 3.02.338 3.815-.982 2.178-3.675 2.799-6.525 3.456C2.875 20.45 3 20.866 3 24H1.005L1 22.759c0-2.52.199-3.975 3.178-4.663 3.365-.777 6.688-1.473 5.09-4.418C4.535 4.949 7.918 0 13 0c3.321 0 5.97 2.117 5.97 6.167 0 3.555-1.949 6.833-2.383 7.833h-2.115c.392-1.536 2.499-4.366 2.499-7.842 0-5.153-5.867-4.985-7.369-2.458zM23 19h-8v2h8v-2z"/></svg><svg style="fill-rule:evenodd;clip-rule:evenodd;stroke-linejoin:round;stroke-miterlimit:2" id="icon-phone" viewBox="0 0 24 24"><path d="m24 17.457-.001 3.284a3.29 3.29 0 0 1-3.605 3.287 22.778 22.778 0 0 1-9.932-3.531 22.464 22.464 0 0 1-6.911-6.908A22.822 22.822 0 0 1 .013 3.586 3.288 3.288 0 0 1 3.286 0h3.28a3.293 3.293 0 0 1 3.291 2.839c.128.971.365 1.924.707 2.839a3.29 3.29 0 0 1-.741 3.47l-.79.791a16.453 16.453 0 0 0 5.028 5.028l.791-.791a3.287 3.287 0 0 1 3.467-.741c.918.342 1.871.58 2.851.709A3.29 3.29 0 0 1 24 17.457Zm-2.193-.001v3.294a1.097 1.097 0 0 1-1.196 1.096 20.585 20.585 0 0 1-8.964-3.194 20.293 20.293 0 0 1-6.25-6.247 20.598 20.598 0 0 1-3.201-9.034 1.095 1.095 0 0 1 1.092-1.178h3.3a1.097 1.097 0 0 1 1.096.943c.148 1.125.426 2.239.826 3.311.151.403.055.855-.246 1.159L6.876 8.994a1.098 1.098 0 0 0-.178 1.318 18.65 18.65 0 0 0 6.99 6.99c.429.244.968.171 1.317-.178l1.393-1.393c.3-.296.752-.393 1.152-.242 1.075.401 2.189.678 3.324.828.541.076.947.555.933 1.112v.027Z"/></svg><svg style="fill-rule:evenodd;clip-rule:evenodd;stroke-linejoin:round;stroke-miterlimit:2" id="icon-play" viewBox="0 0 20 20"><path d="m0 0 20 10L0 20V0Z" style="fill-rule:nonzero"/></svg><svg style="fill-rule:evenodd;clip-rule:evenodd;stroke-linejoin:round;stroke-miterlimit:2" id="icon-plus" viewBox="0 0 24 24"><path d="M10.5 10.5v-9a1.5 1.5 0 0 1 3 0v9h9a1.5 1.5 0 0 1 0 3h-9v9a1.5 1.5 0 0 1-3 0v-9h-9a1.5 1.5 0 0 1 0-3h9Z"/></svg><svg style="fill-rule:evenodd;clip-rule:evenodd;stroke-linejoin:round;stroke-miterlimit:2" id="icon-printer" viewBox="0 0 24 24"><path d="M4.364 7.636V1.091A1.09 1.09 0 0 1 5.455 0h13.09a1.09 1.09 0 0 1 1.091 1.091v6.545h1.091A3.273 3.273 0 0 1 24 10.909v5.455a3.272 3.272 0 0 1-3.273 3.272h-1.091v3.273A1.09 1.09 0 0 1 18.545 24H5.455a1.09 1.09 0 0 1-1.091-1.091v-3.273H3.273A3.272 3.272 0 0 1 0 16.364v-5.455a3.273 3.273 0 0 1 3.273-3.273h1.091Zm2.181 7.637v6.545h10.91v-6.545H6.545Zm13.091 2.182h1.091c.603 0 1.091-.489 1.091-1.091v-5.455c0-.602-.488-1.091-1.091-1.091H3.273c-.603 0-1.091.489-1.091 1.091v5.455c0 .602.488 1.091 1.091 1.091h1.091v-3.273a1.09 1.09 0 0 1 1.091-1.091h13.09a1.09 1.09 0 0 1 1.091 1.091v3.273Zm-2.181-9.819V2.182H6.545v5.454h10.91Z"/></svg><svg style="fill-rule:evenodd;clip-rule:evenodd;stroke-linejoin:round;stroke-miterlimit:2" id="icon-search" viewBox="0 0 24 24"><path d="M17.541 19.238A10.747 10.747 0 0 1 10.8 21.6C4.835 21.6 0 16.765 0 10.8 0 4.835 4.835 0 10.8 0c5.965 0 10.8 4.835 10.8 10.8 0 2.55-.883 4.894-2.362 6.741l4.411 4.411a1.201 1.201 0 0 1-1.697 1.697l-4.411-4.411Zm-.691-2.61a8.4 8.4 0 1 0-.222.222 1.155 1.155 0 0 1 .222-.222Z"/></svg><svg id="icon-twitter" viewBox="0 0 24 24"><path d="M24 4.557a9.83 9.83 0 0 1-2.828.775 4.932 4.932 0 0 0 2.165-2.724 9.864 9.864 0 0 1-3.127 1.195 4.916 4.916 0 0 0-3.594-1.555c-3.179 0-5.515 2.966-4.797 6.045A13.978 13.978 0 0 1 1.671 3.149a4.93 4.93 0 0 0 1.523 6.574 4.903 4.903 0 0 1-2.229-.616c-.054 2.281 1.581 4.415 3.949 4.89a4.935 4.935 0 0 1-2.224.084 4.928 4.928 0 0 0 4.6 3.419A9.9 9.9 0 0 1 0 19.54a13.94 13.94 0 0 0 7.548 2.212c9.142 0 14.307-7.721 13.995-14.646A10.025 10.025 0 0 0 24 4.557z"/></svg><svg id="icon-user-plus" viewBox="0 0 20 16.667"><path d="M13.333 15.833v-1.667A3.333 3.333 0 0 0 10 10.833H4.166a3.333 3.333 0 0 0-3.333 3.333v1.667M7.083 7.5a3.334 3.334 0 1 0 0-6.667 3.334 3.334 0 0 0 0 6.667ZM16.666 5v5m2.5-2.5h-5" fill="none" stroke="#000" stroke-width="1.667" stroke-linecap="round" stroke-linejoin="round"/></svg><svg id="icon-youtube" viewBox="0 0 24 24"><path d="M19.615 3.184c-3.604-.246-11.631-.245-15.23 0C.488 3.45.029 5.804 0 12c.029 6.185.484 8.549 4.385 8.816 3.6.245 11.626.246 15.23 0C23.512 20.55 23.971 18.196 24 12c-.029-6.185-.484-8.549-4.385-8.816zM9 16V8l8 3.993L9 16z"/></svg></svg>