<?xml version="1.0" encoding="UTF-8"?>
<svg style="fill-rule:evenodd;clip-rule:evenodd;stroke-linejoin:round;stroke-miterlimit:2" viewBox="0 0 22 22"
	 version="1.1" xmlns="http://www.w3.org/2000/svg" xmlns:xlink="http://www.w3.org/1999/xlink">

	<path d="M11,0 C17.0751322,0 22,4.92486775 22,11 C22,17.0751322 17.0751322,22 11,22 C4.92486775,22 0,17.0751322 0,11 C0,4.92486775 4.92486775,0 11,0 Z M11,2 C6.02943725,2 2,6.02943725 2,11 C2,15.9705627 6.02943725,20 11,20 C15.9705627,20 20,15.9705627 20,11 C20,6.02943725 15.9705627,2 11,2 Z M11,10 C11.5522847,10 12,10.4477153 12,11 L12,15 C12,15.5522847 11.5522847,16 11,16 C10.4477153,16 10,15.5522847 10,15 L10,11 C10,10.4477153 10.4477153,10 11,10 Z M11.01,6 C11.5622847,6 12.01,6.44771525 12.01,7 C12.01,7.51283584 11.6239598,7.93550716 11.1266211,7.99327227 L11,8 C10.4477153,8 10,7.55228475 10,7 C10,6.48716416 10.3860402,6.06449284 10.8833789,6.00672773 L11.01,6 Z"
		  id="Path"></path>
</svg>
