<svg width="109" height="112" viewBox="0 0 109 112" fill="none" xmlns="http://www.w3.org/2000/svg">
	<path d="M107.213 44.69H2.18801C1.09401 44.69 0 45.808 0 46.9259V64.2541C0 65.3721 1.09401 66.49 2.18801 66.49H106.666C107.76 66.49 108.855 65.3721 108.855 64.2541V46.9259C109.402 45.808 108.307 44.69 107.213 44.69Z"/>
	<path d="M107.213 89.38H2.18801C1.09401 89.38 0 90.498 0 91.6159V108.944C0 110.062 1.09401 111.18 2.18801 111.18H106.666C107.76 111.18 108.855 110.062 108.855 108.944V91.6159C109.402 90.498 108.307 89.38 107.213 89.38Z"/>
	<path d="M107.213 0H2.18801C1.09401 0 0 1.11795 0 2.2359V19.5641C0 20.6821 1.09401 21.8 2.18801 21.8H106.666C107.76 21.8 108.855 20.6821 108.855 19.5641V2.2359C109.402 1.11795 108.307 0 107.213 0Z"/>
</svg>
