<svg xmlns="http://www.w3.org/2000/svg" xml:space="preserve" style="fill-rule:evenodd;clip-rule:evenodd;stroke-linejoin:round;stroke-miterlimit:2" viewBox="0 0 24 24"><path d="M3.27 2.18A3.28 3.28 0 0 0 0 5.45v13.1c0 1.8 1.47 3.27 3.27 3.27h17.46c1.8 0 3.27-1.48 3.27-3.27V5.45c0-1.8-1.47-3.27-3.27-3.27H3.27ZM2.18 7.55v11c0 .6.5 1.09 1.1 1.09h17.45c.6 0 1.09-.5 1.09-1.1V7.56l-9.2 6.43a1.1 1.1 0 0 1-1.25 0L2.18 7.55ZM21.7 4.97a1.1 1.1 0 0 0-.97-.6H3.27c-.42 0-.8.24-.97.6l9.7 6.79 9.7-6.8Z"/></svg>