<svg xmlns="http://www.w3.org/2000/svg" width="134" height="134" viewBox="0 0 134 134"><path d="M124.38 13.98a14.63 14.63 0 0 0-12.54-2.66l-25.68 6.42-37.8-9.44h-.08a4.48 4.48 0 0 0-1.12 0 4.58 4.58 0 0 0-1.07 0h-.1l-31.6 7.9A14.63 14.63 0 0 0 3.34 30.36v77.35A14.61 14.61 0 0 0 21.5 121.9l25.69-6.43 37.8 9.46c.77.19 1.58.19 2.35 0l31.6-7.9A14.63 14.63 0 0 0 130 102.85V25.5c0-4.5-2.07-8.75-5.62-11.52Zm-82.07 92.68-23.18 5.79a4.88 4.88 0 0 1-6.05-4.73V30.37a4.85 4.85 0 0 1 3.69-4.72l25.54-6.39v87.4Zm38.97 7.3-29.23-7.3v-87.4l29.23 7.31v87.39Zm38.97-11.11a4.88 4.88 0 0 1-3.69 4.73l-25.54 6.38v-87.4l23.18-5.78a4.88 4.88 0 0 1 6.06 4.73v77.34Z"/></svg>
