<?xml version="1.0" encoding="UTF-8" standalone="no"?>
<!DOCTYPE svg PUBLIC "-//W3C//DTD SVG 1.1//EN" "http://www.w3.org/Graphics/SVG/1.1/DTD/svg11.dtd">
<svg width="100%" height="100%" viewBox="0 0 24 24" version="1.1" xmlns="http://www.w3.org/2000/svg" xmlns:xlink="http://www.w3.org/1999/xlink" xml:space="preserve" xmlns:serif="http://www.serif.com/" style="fill-rule:evenodd;clip-rule:evenodd;stroke-linejoin:round;stroke-miterlimit:2;">
    <path d="M24,15.6L24,3.6C24,1.612 22.388,-0 20.4,-0L3.6,-0C1.612,-0 -0,1.612 -0,3.6L-0,22.8C-0,23.285 0.292,23.723 0.741,23.909C1.189,24.094 1.705,23.992 2.049,23.649L6.497,19.2C6.497,19.2 20.4,19.2 20.4,19.2C22.388,19.2 24,17.588 24,15.6ZM21.6,15.6C21.6,16.263 21.063,16.8 20.4,16.8C20.4,16.8 6,16.8 6,16.8C5.682,16.8 5.377,16.926 5.151,17.151L2.4,19.903C2.4,19.903 2.4,3.6 2.4,3.6C2.4,2.937 2.937,2.4 3.6,2.4C3.6,2.4 20.4,2.4 20.4,2.4C21.063,2.4 21.6,2.937 21.6,3.6L21.6,15.6Z"/>
</svg>
