<svg xmlns="http://www.w3.org/2000/svg" xml:space="preserve" style="fill-rule:evenodd;clip-rule:evenodd;stroke-linejoin:round;stroke-miterlimit:2" viewBox="0 0 20 20"><path d="M20 11.35v-2.7c-1.38-.49-2.25-.62-2.68-1.68-.44-1.06.08-1.78.7-3.09l-1.9-1.9c-1.3.62-2.03 1.14-3.09.7-1.06-.44-1.2-1.31-1.68-2.68h-2.7c-.48 1.36-.62 2.24-1.68 2.68-1.06.44-1.78-.08-3.09-.7l-1.9 1.9c.62 1.3 1.14 2.03.7 3.09C2.24 8.03 1.36 8.17 0 8.65v2.7c1.36.48 2.24.62 2.68 1.68.44 1.07-.1 1.8-.7 3.09l1.9 1.9c1.3-.62 2.03-1.14 3.09-.7 1.06.44 1.2 1.31 1.68 2.68h2.7c.48-1.36.62-2.24 1.69-2.68 1.05-.44 1.76.08 3.08.7l1.9-1.9c-.62-1.3-1.14-2.03-.7-3.09.43-1.06 1.32-1.2 2.68-1.68Zm-10 1.98a3.33 3.33 0 1 1 0-6.66 3.33 3.33 0 0 1 0 6.66Z" style="fill-rule:nonzero"/></svg>