<svg xmlns="http://www.w3.org/2000/svg" width="129" height="129" viewBox="0 0 129 129"><path fill-rule="evenodd" d="m8.09 128.47 21.22-4.24a8.33 8.33 0 0 0 4.26-2.28l90.96-90.96a13.89 13.89 0 0 0 0-19.64l-6.51-6.5a13.9 13.9 0 0 0-19.64 0L7.42 95.8a8.33 8.33 0 0 0-2.28 4.26L.9 121.28a6.1 6.1 0 0 0 7.19 7.2ZM9.9 104.6l14.88 14.88L7 123.03a.56.56 0 0 1-.5-.16.56.56 0 0 1-.15-.5l3.56-17.78Zm2.22-5.64 18.3 18.3 76.63-76.63-18.3-18.3-76.63 76.63Zm98.85-62.26L92.68 18.4l9.62-9.61a8.33 8.33 0 0 1 11.79 0l6.5 6.5a8.34 8.34 0 0 1 0 11.79l-9.62 9.62Z" clip-rule="evenodd"/></svg>