<svg xmlns="http://www.w3.org/2000/svg" xml:space="preserve" style="fill-rule:evenodd;clip-rule:evenodd;stroke-linejoin:round;stroke-miterlimit:2" viewBox="0 0 24 24"><path d="M24 17.46v3.28a3.29 3.29 0 0 1-3.6 3.29 22.78 22.78 0 0 1-9.94-3.53 22.46 22.46 0 0 1-6.9-6.91C1.6 10.59.38 7.16 0 3.59A3.29 3.29 0 0 1 3.3 0h3.28a3.3 3.3 0 0 1 3.29 2.84c.13.97.36 1.92.7 2.84a3.3 3.3 0 0 1-.74 3.47l-.79.79c1.3 2.02 3 3.74 5.03 5.03l.8-.8c.9-.9 2.26-1.19 3.46-.73.92.34 1.87.58 2.85.7A3.29 3.29 0 0 1 24 17.46Zm-2.2 0v3.29a1.1 1.1 0 0 1-1.19 1.1 20.58 20.58 0 0 1-8.96-3.2 20.3 20.3 0 0 1-6.25-6.24 20.6 20.6 0 0 1-3.2-9.04A1.09 1.09 0 0 1 3.29 2.2h3.3c.55 0 1.02.4 1.1.95.14 1.12.42 2.23.82 3.3.15.41.05.86-.25 1.17L6.88 8.99a1.1 1.1 0 0 0-.18 1.32 18.65 18.65 0 0 0 6.99 7c.43.24.97.16 1.32-.19l1.39-1.39c.3-.3.75-.4 1.15-.24 1.07.4 2.19.68 3.32.83.54.07.95.55.94 1.1v.04Z"/></svg>