<svg xmlns="http://www.w3.org/2000/svg" xml:space="preserve" style="fill-rule:evenodd;clip-rule:evenodd;stroke-linejoin:round;stroke-miterlimit:2" viewBox="0 0 24 24"><path d="M4.36 7.64V1.09c0-.6.5-1.09 1.1-1.09h13.09c.6 0 1.09.49 1.09 1.1v6.54h1.09c1.8 0 3.27 1.46 3.27 3.27v5.45c0 1.81-1.46 3.28-3.27 3.28h-1.1v3.27c0 .6-.48 1.09-1.08 1.09H5.45c-.6 0-1.09-.49-1.09-1.1v-3.26H3.27A3.27 3.27 0 0 1 0 16.36v-5.45c0-1.8 1.47-3.27 3.27-3.27h1.1Zm2.18 7.63v6.55h10.91v-6.55H6.55Zm13.1 2.18h1.09c.6 0 1.09-.48 1.09-1.09v-5.45c0-.6-.49-1.1-1.1-1.1H3.28c-.6 0-1.09.5-1.09 1.1v5.45c0 .6.49 1.1 1.1 1.1h1.08v-3.28c0-.6.5-1.09 1.1-1.09h13.09c.6 0 1.09.49 1.09 1.1v3.26Zm-2.19-9.81V2.18H6.55v5.46h10.9Z"/></svg>