<svg xmlns="http://www.w3.org/2000/svg" width="101" height="85" viewBox="0 0 101 85"><g fill-rule="nonzero"><path d="M55 50.83a20.84 20.84 0 0 1 20.83 20.84V80a4.17 4.17 0 1 1-8.33 0v-8.33A12.5 12.5 0 0 0 55 59.17H21.66a12.5 12.5 0 0 0-12.5 12.5V80a4.17 4.17 0 1 1-8.33 0v-8.33a20.83 20.83 0 0 1 20.83-20.84H55ZM38.33.83a20.84 20.84 0 1 1 0 41.67 20.84 20.84 0 0 1 0-41.67Zm0 8.34a12.5 12.5 0 1 0 12.5 12.5v-.31a12.5 12.5 0 0 0-12.5-12.2ZM80.13 54.5a4.17 4.17 0 0 1 5.07-3 20.82 20.82 0 0 1 15.63 20.17V80a4.17 4.17 0 1 1-8.33 0v-8.33a12.48 12.48 0 0 0-9.01-12l-.37-.1a4.17 4.17 0 0 1-3-5.07ZM63.46 4.51a4.17 4.17 0 0 1 5.07-3 20.83 20.83 0 0 1 0 40.36 4.17 4.17 0 1 1-2.06-8.07 12.5 12.5 0 0 0 .34-24.13l-.34-.09a4.17 4.17 0 0 1-3.01-5.07Z"/></g></svg>