<svg xmlns="http://www.w3.org/2000/svg" width="20" height="17" fill="none" viewBox="0 0 20 17"><path fill="#000" fill-rule="evenodd" d="M4.3 1.39a4.17 4.17 0 1 1 5.9 5.9 4.17 4.17 0 0 1-5.9-5.9Zm2.95.44a2.5 2.5 0 1 0 0 5 2.5 2.5 0 0 0 0-5Zm9.59 2.5c.46 0 .84.38.84.84v1.66h1.66a.83.83 0 1 1 0 1.67h-1.66v1.67a.83.83 0 1 1-1.68 0V8.5h-1.66a.84.84 0 0 1 0-1.67H16V5.17c0-.46.38-.84.84-.84Zm-12.6 5.84h5.93c2.3 0 4.17 1.87 4.17 4.17V16a.83.83 0 1 1-1.68 0v-1.66a2.5 2.5 0 0 0-2.49-2.5H4.39c-1.16.13-1.68.35-1.96.64-.29.28-.5.78-.6 1.9V16a.83.83 0 1 1-1.66 0v-1.73c.1-1.21.35-2.24 1.07-2.97.72-.72 1.76-1 3-1.13Z" clip-rule="evenodd"/></svg>