<svg width="365" height="365" viewBox="0 0 365 365" fill="none" xmlns="http://www.w3.org/2000/svg">
<rect width="365" height="365" fill="#0047B9"/>
<g clip-path="url(#clip0_20_2)">
<path d="M280.663 80H268.325L268.337 55.3373H243.674V80H120.337V55.3373H95.6627V80H83.337C69.7047 80 58.6627 91.0423 58.6627 104.663V289.663C58.6627 303.283 69.705 314.325 83.3254 314.325H280.663C294.283 314.325 305.325 303.283 305.325 289.663L305.337 104.663C305.337 91.042 294.295 80 280.663 80H280.663ZM280.663 289.663H83.3373V166.337H280.675L280.663 289.663ZM256 240.337H206.663V191H256V240.337Z" fill="white"/>
</g>
<defs>
<clipPath id="clip0_20_2">
<rect width="280" height="280" fill="white" transform="translate(42 43)"/>
</clipPath>
</defs>
</svg>
