<svg width="100%" height="100%" viewBox="0 0 24 24" version="1.1" xmlns="http://www.w3.org/2000/svg" xmlns:xlink="http://www.w3.org/1999/xlink" xml:space="preserve" xmlns:serif="http://www.serif.com/" style="fill-rule:evenodd;clip-rule:evenodd;stroke-linejoin:round;stroke-miterlimit:2;">
    <path d="M7.493,17.322L1.651,21.886C1.347,22.124 0.934,22.167 0.587,21.998C0.24,21.828 0.02,21.476 0.02,21.09L0.02,4.93C0.02,3.233 1.324,1.9 2.876,1.9L12.111,1.9C13.663,1.9 14.968,3.233 14.968,4.93L14.968,21.09C14.968,21.476 14.747,21.828 14.4,21.998C14.053,22.167 13.64,22.124 13.336,21.886L7.493,17.322ZM12.948,19.019L12.948,4.93C12.948,4.395 12.599,3.92 12.111,3.92C12.111,3.92 2.876,3.92 2.876,3.92C2.388,3.92 2.04,4.395 2.04,4.93L2.04,19.019L6.872,15.244C7.237,14.959 7.75,14.959 8.115,15.244L12.948,19.019ZM20.828,10.572L22.257,9.143C22.651,8.749 23.291,8.749 23.685,9.143C24.079,9.537 24.079,10.177 23.685,10.572L22.257,12L23.685,13.428C24.079,13.823 24.079,14.463 23.685,14.857C23.291,15.251 22.651,15.251 22.257,14.857L20.828,13.428L19.4,14.857C19.006,15.251 18.366,15.251 17.971,14.857C17.577,14.463 17.577,13.823 17.971,13.428L19.4,12L17.971,10.572C17.577,10.177 17.577,9.537 17.971,9.143C18.366,8.749 19.006,8.749 19.4,9.143L20.828,10.572Z"/>
</svg>
