<?xml version="1.0" encoding="UTF-8" standalone="no"?>
<!DOCTYPE svg PUBLIC "-//W3C//DTD SVG 1.1//EN" "http://www.w3.org/Graphics/SVG/1.1/DTD/svg11.dtd">
<svg width="100%" height="100%" viewBox="0 0 24 24" version="1.1" xmlns="http://www.w3.org/2000/svg" xmlns:xlink="http://www.w3.org/1999/xlink" xml:space="preserve" xmlns:serif="http://www.serif.com/" style="fill-rule:evenodd;clip-rule:evenodd;stroke-linejoin:round;stroke-miterlimit:2;">
    <path d="M1.2,20.4L22.8,20.4C23.462,20.4 24,19.862 24,19.2C24,18.538 23.462,18 22.8,18L1.2,18C0.538,18 0,18.538 0,19.2C-0,19.862 0.538,20.4 1.2,20.4ZM1.2,13.2L22.8,13.2C23.462,13.2 24,12.662 24,12C24,11.338 23.462,10.8 22.8,10.8L1.2,10.8C0.538,10.8 0,11.338 0,12C-0,12.662 0.538,13.2 1.2,13.2ZM1.2,6L22.8,6C23.462,6 24,5.462 24,4.8C24,4.138 23.462,3.6 22.8,3.6L1.2,3.6C0.538,3.6 0,4.138 0,4.8C-0,5.462 0.538,6 1.2,6Z"/>
</svg>
