<?xml version="1.0" encoding="UTF-8"?>
<svg width="32px" height="32px" viewBox="0 0 32 32" version="1.1" xmlns="http://www.w3.org/2000/svg" xmlns:xlink="http://www.w3.org/1999/xlink">
    <!-- Generator: Sketch 52.6 (67491) - http://www.bohemiancoding.com/sketch -->
    <title>module_administration</title>
    <desc>Created with Sketch.</desc>
    <g id="Page-1" stroke="none" stroke-width="1" fill="none" fill-rule="evenodd">
        <g id="module_administration">
            <rect id="Rectangle-2" fill="#008DD1" x="0" y="0" width="32" height="32"></rect>
            <path d="M20.079796,24.44736 L4,24.44736 L4.00002858,22.1824907 C3.99717245,21.7064856 4.20852182,21.2542672 4.57505629,20.94962 C6.03261042,19.7748272 7.6129983,18.7609126 9.28855798,17.9250825 C9.33901487,17.9012817 9.37138303,17.8498736 9.37138303,17.793704 L9.37138303,16.2362012 C9.14385055,15.8506397 8.98867301,15.4269851 8.91346171,14.9861971 C8.73828956,14.9719167 8.50884146,14.725346 8.26037119,13.8504236 C7.92145726,12.6508691 8.28226753,12.4757091 8.58690426,12.5023718 L8.5859523,12.5023718 C8.52978267,12.343385 8.48598902,12.1805912 8.4545738,12.0149363 C8.33461835,11.495135 8.33461835,10.9553245 8.4545738,10.4355233 C8.60785034,9.82242684 8.92582648,9.26358199 9.37611944,8.81994253 C9.63031707,8.55051254 9.91688043,8.31347263 10.2291316,8.11545194 C10.4842798,7.93551999 10.7632148,7.79272087 11.0573821,7.69179734 C11.3010999,7.6089723 11.554347,7.56041884 11.8104213,7.54804285 C12.4644623,7.47854429 13.1232558,7.61944485 13.6925805,7.94978723 C14.0714885,8.14590448 14.3904176,8.44197526 14.6131756,8.80565092 C14.6131756,8.80565092 16.1411642,8.91513382 15.6242144,12.0178511 L15.6251666,12.0178511 C15.593749,12.1835037 15.5499578,12.3463096 15.4937881,12.5052867 C15.7984354,12.4757749 16.1592595,12.6538034 15.8203212,13.8533384 C15.5766034,14.7282365 15.3328857,14.9748301 15.1672307,14.989112 L15.1662787,14.98816 C15.0910699,15.425146 14.9358899,15.8440237 14.7083574,16.2238822 L14.7083574,17.8013942 C14.7083574,17.8566109 14.7407256,17.9080208 14.7911825,17.9327727 C16.4667421,18.7658001 18.0470082,19.7777894 19.5046842,20.949755 C19.8712113,21.2544022 20.0825634,21.7066206 20.0797119,22.1826257 L20.079796,24.44736 Z M19.3829094,18.212572 L19.3829094,19.1189096 C19.3848135,19.2198234 19.3572044,19.3188337 19.3048441,19.4045225 C19.6047388,19.6263446 19.9065346,19.8605428 20.2064049,20.1061616 L20.2073571,20.1061616 C20.8299829,20.6250123 21.1879312,21.3961597 21.1822282,22.2072768 L21.1822282,24.4692702 L28.0007203,24.4692702 L28.0007203,22.3291357 C27.9426472,21.7293706 27.5723132,21.2047925 27.0258492,20.9496444 C26.5707794,20.7221119 26.0938237,20.5393211 25.6025861,20.4041309 C25.5759283,20.3898507 24.0603157,19.9919067 23.3405928,19.6091966 L23.276807,19.5701628 L23.2777589,19.5701628 C23.1254353,19.4721054 23.0340411,19.3026338 23.0340411,19.1217709 L23.0340411,18.1859434 C23.0340411,18.1859434 25.1180231,18.2497292 26.1053725,17.2405865 C26.1053725,17.2405865 24.6678276,16.8331148 24.9258272,14.2131243 C25.1838269,11.5931339 24.6040467,9.29489972 22.4886495,9.49011766 C22.4886495,9.49011766 21.5775594,8.39338769 19.7612039,9.08264592 C19.147157,9.32636369 17.4630185,9.92612875 17.56014,13.5553545 C17.6581974,17.1845558 16.2691913,17.211121 16.2691913,17.211121 C16.2691913,17.211121 16.9755829,18.2345407 19.3831733,18.2126548 L19.3829094,18.212572 Z" id="Shape" fill="#FFFFFF" fill-rule="nonzero"></path>
        </g>
    </g>
</svg>