<svg width="14" height="14" viewBox="0 0 14 14" fill="none" xmlns="http://www.w3.org/2000/svg">
<g clip-path="url(#clip0_53_105)">
<path fill-rule="evenodd" clip-rule="evenodd" d="M0 0H14V14H0V0Z" fill="#008DD1"/>
<path d="M5.9536 7.52021C5.70008 7.4665 5.37395 7.4347 4.99583 7.14294C4.99196 7.29377 4.66626 7.4158 4.2645 7.4158C3.86275 7.4158 3.53704 7.29377 3.53318 7.14294C2.61493 7.85193 2 7.02564 2 8.70527C2 9.16547 3.22804 9.38676 4.26017 9.38676C4.26189 9.38676 4.26318 9.38633 4.2649 9.38633C4.26662 9.38633 4.2679 9.38676 4.26962 9.38676C4.43377 9.38676 4.60263 9.38117 4.77064 9.37C4.81748 7.9202 5.25404 7.6672 5.95358 7.52024L5.9536 7.52021Z" fill="white"/>
<path d="M3.27552 6.17911C3.38295 6.47129 3.5647 6.75361 3.789 6.9302C3.93424 7.0445 4.09666 7.1154 4.2694 7.1154C4.44041 7.1154 4.6024 7.04536 4.74677 6.93235C4.97279 6.75531 5.15584 6.47129 5.26369 6.17738C5.33201 6.15719 5.40333 6.02785 5.43256 5.86242C5.46393 5.68281 5.43428 5.52597 5.36553 5.50062C5.36209 5.44218 5.35693 5.38331 5.34877 5.32444C5.32127 4.81655 5.16615 4.58968 4.9367 4.48827C4.77427 4.35764 4.55729 4.27643 4.26939 4.27643C3.98193 4.27643 3.7658 4.35592 3.60423 4.48311C3.35158 4.58924 3.18658 4.84147 3.17713 5.44045C3.17541 5.45935 3.17412 5.47869 3.17326 5.4976C3.09849 5.51221 3.06455 5.67506 3.09763 5.86197C3.12771 6.03599 3.20463 6.1692 3.27553 6.17908L3.27552 6.17911Z" fill="white"/>
<path d="M9.60077 7.29761C9.59476 7.52405 9.1062 7.7071 8.50335 7.7071C7.90049 7.7071 7.41194 7.52405 7.40635 7.29761C6.02915 8.36152 5.10669 7.12273 5.10669 9.6416C5.10669 10.3321 6.94875 10.6638 8.49645 10.6638H8.50332H8.5102C10.0579 10.6643 11.9 10.3321 11.9 9.6416C11.9 7.12282 10.9774 8.36153 9.60074 7.29761H9.60077Z" fill="white"/>
<path d="M7.01971 5.85308C7.14046 6.18265 7.32478 6.5032 7.55166 6.75456C7.61053 6.81987 7.67326 6.87917 7.73771 6.93417C7.7549 6.94921 7.77209 6.96554 7.79013 6.97972C8.00799 7.15116 8.25205 7.25772 8.51029 7.25772C8.76724 7.25772 9.01002 7.15288 9.22658 6.98315C9.24119 6.97155 9.25494 6.95823 9.26955 6.9462C9.33658 6.88991 9.40189 6.82889 9.46334 6.761C9.69322 6.50791 9.87971 6.18393 10.0022 5.8505C10.1044 5.82042 10.2118 5.62619 10.2552 5.37827C10.3025 5.10885 10.2578 4.87382 10.1551 4.83557C10.1504 4.74834 10.1422 4.65982 10.1298 4.57132C10.0881 3.80948 9.85564 3.46912 9.51189 3.31754C9.26826 3.12203 8.94255 3 8.51071 3C8.07973 3 7.75532 3.11902 7.51255 3.31023C7.134 3.46922 6.88607 3.8482 6.87189 4.74672C6.86974 4.77551 6.86759 4.80387 6.86587 4.8318C6.75373 4.85372 6.70259 5.09778 6.752 5.3788C6.79755 5.6379 6.91313 5.83814 7.0197 5.85317L7.01971 5.85308Z" fill="white"/>
</g>
<defs>
<clipPath id="clip0_53_105">
<rect width="14" height="14" fill="white"/>
</clipPath>
</defs>
</svg>
