<svg width="14" height="14" viewBox="0 0 14 14" fill="none" xmlns="http://www.w3.org/2000/svg">
<g clip-path="url(#clip0_151_62)">
<path fill-rule="evenodd" clip-rule="evenodd" d="M0 0H14V14H0V0Z" fill="#008DD1"/>
<path d="M7 11.75C4.3801 11.75 2.25 9.6199 2.25 7C2.25 4.3801 4.3801 2.25 7 2.25C9.6199 2.25 11.75 4.3801 11.75 7C11.75 9.6199 9.6199 11.75 7 11.75ZM7.43008 7.8898C7.48008 7.8898 7.51016 7.84996 7.51016 7.80972V7.37964C7.51016 7.32964 7.47031 7.29956 7.43008 7.29956L5.91018 7.29995C5.90002 7.19995 5.88987 7.09995 5.88987 6.99995C5.88987 6.89995 5.90002 6.81011 5.90979 6.71011H7.42969C7.47969 6.71011 7.50977 6.67027 7.50977 6.63004V6.19996C7.50977 6.14996 7.46992 6.11988 7.42969 6.11988H6.09999C6.36015 5.59996 6.83983 5.2398 7.38979 5.2398C7.73979 5.2398 8.07963 5.3898 8.34995 5.64996C8.38003 5.68004 8.43003 5.68004 8.46011 5.64996L8.94019 5.21012C8.97027 5.18004 8.98003 5.12027 8.94019 5.0902C8.51011 4.66012 7.96011 4.42028 7.39019 4.42028C6.40035 4.42028 5.55039 5.13044 5.22029 6.12028H4.66013C4.61013 6.12028 4.58005 6.16012 4.58005 6.20036V6.63044C4.58005 6.68044 4.6199 6.71051 4.66013 6.71051H5.09021C5.08005 6.81051 5.07029 6.90035 5.07029 7.00035C5.07029 7.10035 5.08044 7.20035 5.09021 7.29019H4.66013C4.61013 7.29019 4.58005 7.33004 4.58005 7.37027V7.80035C4.58005 7.85035 4.6199 7.88043 4.66013 7.88043H5.22029C5.55037 8.87027 6.39019 9.58043 7.39019 9.58043C7.97027 9.58043 8.52029 9.34059 8.94019 8.91051C8.97027 8.88043 8.97027 8.82067 8.94019 8.79059L8.46011 8.35075C8.43003 8.32067 8.38003 8.32067 8.34995 8.35075C8.08003 8.62067 7.73979 8.77067 7.38979 8.77067C6.83979 8.77067 6.35969 8.42067 6.09999 7.89059L7.43008 7.8898Z" fill="white"/>
</g>
<defs>
<clipPath id="clip0_151_62">
<rect width="14" height="14" fill="white"/>
</clipPath>
</defs>
</svg>
