<svg width="14" height="14" viewBox="0 0 14 14" fill="none" xmlns="http://www.w3.org/2000/svg">
<g clip-path="url(#clip0_53_143)">
<path fill-rule="evenodd" clip-rule="evenodd" d="M0 0H14V14H0V0Z" fill="#008DD1"/>
<path d="M5.7402 3.72982C4.76694 4.70308 4.76694 6.28652 5.7402 7.25969C6.71346 8.23287 8.29689 8.23295 9.27007 7.25969C10.2433 6.28643 10.2433 4.703 9.27007 3.72982C8.29681 2.75656 6.71337 2.75656 5.7402 3.72982V3.72982ZM8.80065 6.79027C8.08666 7.50459 6.92425 7.50459 6.20996 6.79027C5.49597 6.07595 5.49597 4.91388 6.20996 4.19958C6.92428 3.48526 8.0867 3.48526 8.80065 4.19958C9.51497 4.9139 9.51497 6.07598 8.80065 6.79027Z" fill="white"/>
<path d="M3.6261 9.89278L5.86216 7.65638C5.76508 7.58431 5.67166 7.50424 5.58358 7.41616C5.4955 7.32807 5.41576 7.23466 5.34336 7.13757L3.10764 9.37398C2.96418 9.51711 2.96418 9.74932 3.10731 9.89278C3.25077 10.0359 3.48298 10.0359 3.62611 9.89278H3.6261Z" fill="white"/>
<path d="M6.54427 4.46277L6.70075 4.61924C7.16617 4.19152 7.89215 4.20153 8.3432 4.65294L8.49968 4.49647C7.96218 3.95897 7.09603 3.94863 6.54419 4.46277H6.54427Z" fill="white"/>
</g>
<defs>
<clipPath id="clip0_53_143">
<rect width="14" height="14" fill="white"/>
</clipPath>
</defs>
</svg>
