<svg width="14" height="14" viewBox="0 0 14 14" fill="none" xmlns="http://www.w3.org/2000/svg">
<g clip-path="url(#clip0_53_164)">
<path fill-rule="evenodd" clip-rule="evenodd" d="M0 0H14V14H0V0Z" fill="#008DD1"/>
<path d="M8.73632 7.41131L9.39101 7.15428L9.09179 6.39256L8.39062 4.60736L2.53442 6.90736L2.74809 7.45111H4.68789L7.32149 6.41671C7.35977 6.40187 7.40352 6.42023 7.41876 6.45929C7.43399 6.49796 7.41485 6.54132 7.37618 6.55656L5.09808 7.45108H6.41018L8.29608 6.71047C8.33436 6.69562 8.37811 6.71437 8.39335 6.75304C8.40897 6.79132 8.38983 6.83468 8.35155 6.84992L6.82105 7.45109H8.69525C8.70306 7.43351 8.71713 7.41867 8.73627 7.41124L8.73632 7.41131ZM7.89101 5.67771L3.62931 7.35151C3.62033 7.35503 3.61095 7.35659 3.60197 7.35659C3.57189 7.35659 3.54377 7.33862 3.53205 7.30893C3.51681 7.27026 3.53595 7.2269 3.57463 7.21167L7.83633 5.53787C7.87461 5.52302 7.91836 5.54177 7.93359 5.58044C7.94883 5.61912 7.92969 5.66248 7.89101 5.67771V5.67771Z" fill="white"/>
<path d="M10.0263 8.75944L9.86221 8.4278L9.69854 8.75944C9.6876 8.7817 9.66651 8.79693 9.64229 8.80045L9.27588 8.85397L9.54072 9.11217C9.5583 9.12936 9.5665 9.15435 9.5622 9.17857L9.4997 9.54302L9.82704 9.37075C9.83798 9.36489 9.85009 9.36216 9.86181 9.36216C9.87392 9.36216 9.88564 9.36489 9.89657 9.37075L10.2243 9.54302L10.1614 9.17857C10.1571 9.15435 10.1653 9.12935 10.1829 9.11217L10.4477 8.85397L10.0817 8.80084C10.0583 8.79694 10.0372 8.7817 10.0262 8.75944L10.0263 8.75944Z" fill="white"/>
<path d="M2.20312 10.3375H8.49493V7.6012H2.20312V10.3375ZM7.63863 9.67383H5.22412C5.18272 9.67383 5.14912 9.64023 5.14912 9.59883C5.14912 9.55742 5.18272 9.52383 5.22412 9.52383H7.63822C7.67963 9.52383 7.71322 9.55742 7.71322 9.59883C7.71362 9.64023 7.68002 9.67383 7.63862 9.67383H7.63863ZM3.05973 8.26443H7.63863C7.68003 8.26443 7.71363 8.29802 7.71363 8.33943C7.71363 8.38083 7.68003 8.41443 7.63863 8.41443H3.05973C3.01832 8.41443 2.98473 8.38083 2.98473 8.33943C2.98473 8.29802 3.01832 8.26443 3.05973 8.26443V8.26443ZM3.05973 8.89412H6.83822C6.87963 8.89412 6.91322 8.92771 6.91322 8.96912C6.91322 9.01052 6.87963 9.04412 6.83822 9.04412H3.05973C3.01832 9.04412 2.98473 9.01052 2.98473 8.96912C2.98473 8.92771 3.01832 8.89412 3.05973 8.89412Z" fill="white"/>
<path d="M8.53052 4.55232L9.53132 7.09922L11.7973 6.20938L10.7965 3.66248L8.53052 4.55232ZM10.8559 4.90388C10.8743 4.92614 10.8782 4.95622 10.8665 4.98239L10.668 5.42184L10.918 5.83473C10.9329 5.85895 10.9325 5.88981 10.9169 5.91403C10.9016 5.93786 10.8731 5.95114 10.8454 5.9484L10.3657 5.89567L10.0504 6.26051C10.036 6.27731 10.0153 6.28668 9.99381 6.28668C9.98756 6.28668 9.98131 6.2859 9.97506 6.28434C9.94732 6.27731 9.92623 6.25465 9.92037 6.22692L9.82232 5.75426L9.37779 5.56715C9.35162 5.55621 9.33365 5.53121 9.33209 5.50269C9.33053 5.47418 9.34498 5.44722 9.36998 5.43316L9.78912 5.19371L9.82897 4.71285C9.83131 4.68434 9.84967 4.65973 9.87623 4.64918C9.90279 4.63902 9.93287 4.6441 9.95397 4.66363L10.311 4.98824L10.7809 4.87847C10.809 4.87222 10.8379 4.88199 10.8559 4.90386L10.8559 4.90388Z" fill="white"/>
<path d="M10.5148 5.39652L10.6671 5.05941L10.3069 5.14379C10.2827 5.14926 10.2577 5.14262 10.2394 5.12621L9.96591 4.87738L9.93466 5.24613C9.93271 5.27074 9.91865 5.29261 9.89716 5.30511L9.57568 5.4887L9.9167 5.63206C9.93936 5.64183 9.95616 5.66175 9.96085 5.68597L10.0358 6.04808L10.2776 5.768C10.2937 5.74925 10.3183 5.73988 10.3425 5.74261L10.7105 5.78284L10.5187 5.46643C10.5062 5.44495 10.5046 5.41878 10.5148 5.39651L10.5148 5.39652Z" fill="white"/>
<path d="M11.0798 7.6012H8.64502V10.3375H11.0798V7.6012ZM10.6622 8.8551L10.3165 9.19182L10.3982 9.66721C10.4029 9.69533 10.3915 9.72385 10.3685 9.74064C10.3454 9.75744 10.3146 9.75939 10.2896 9.7465L9.86225 9.52228L9.4353 9.7465C9.42436 9.75236 9.41225 9.7551 9.40053 9.7551C9.38491 9.7551 9.36928 9.75041 9.35639 9.74064C9.33334 9.72385 9.32162 9.69533 9.32631 9.66721L9.40795 9.19182L9.06225 8.8551C9.04194 8.83517 9.03452 8.80549 9.04311 8.77814C9.0521 8.75119 9.07553 8.73127 9.10366 8.72697L9.58139 8.65744L9.79467 8.22502C9.80756 8.19924 9.83334 8.18322 9.86186 8.18322C9.89037 8.18322 9.91654 8.19924 9.92904 8.22502L10.1427 8.65744L10.6201 8.72697C10.6482 8.73088 10.6716 8.7508 10.6806 8.77814C10.69 8.80549 10.6826 8.83517 10.6622 8.8551H10.6622Z" fill="white"/>
</g>
<defs>
<clipPath id="clip0_53_164">
<rect width="14" height="14" fill="white"/>
</clipPath>
</defs>
</svg>
