<svg width="14" height="14" viewBox="0 0 14 14" fill="none" xmlns="http://www.w3.org/2000/svg">
<g clip-path="url(#clip0_53_132)">
<path fill-rule="evenodd" clip-rule="evenodd" d="M0 0H14V14H0V0Z" fill="#008DD1"/>
<path d="M6.32178 6.01383C6.32178 5.81574 6.20061 5.71692 6.04678 5.71692C5.89296 5.71692 5.78296 5.81575 5.78296 6.01383C5.78296 6.20074 5.89296 6.31074 6.04678 6.31074C6.20104 6.31117 6.32178 6.20117 6.32178 6.01383Z" fill="white"/>
<path d="M10.205 6.21191C10.095 6.12382 9.98499 6.01382 9.96307 5.94808C9.94116 5.87117 9.99616 5.71691 10.04 5.57426C10.1169 5.35426 10.205 5.10117 10.0838 4.89235C9.96264 4.68352 9.70999 4.62852 9.46764 4.58426C9.32455 4.56234 9.17073 4.52926 9.11573 4.47426C9.06073 4.41926 9.02764 4.26543 9.00573 4.12235C8.9619 3.88043 8.9069 3.62735 8.69764 3.50617C8.48882 3.38499 8.24647 3.47308 8.01573 3.55C7.88382 3.59383 7.72955 3.64883 7.64191 3.62691C7.56499 3.605 7.46573 3.48382 7.37808 3.385C7.21308 3.19809 7.04808 3 6.79499 3C6.54191 3 6.37691 3.19809 6.21191 3.385C6.12382 3.495 6.01382 3.605 5.94808 3.62691C5.87117 3.64883 5.71691 3.59383 5.57426 3.55C5.34308 3.47308 5.10117 3.385 4.89235 3.50617C4.68352 3.62735 4.62852 3.87999 4.58426 4.12235C4.56234 4.26543 4.52926 4.41926 4.47426 4.47426C4.41926 4.52926 4.26543 4.56234 4.12235 4.58426C3.88043 4.62809 3.62735 4.68309 3.50617 4.89235C3.38499 5.10117 3.47308 5.34352 3.55 5.57426C3.59383 5.70617 3.64883 5.86043 3.62691 5.94808C3.605 6.025 3.48382 6.12426 3.385 6.21191C3.19809 6.37691 3 6.54191 3 6.79499C3 7.03691 3.19809 7.21308 3.385 7.37808C3.495 7.46617 3.605 7.57617 3.62691 7.64191C3.64883 7.71882 3.59383 7.87308 3.55 8.01573C3.47308 8.23573 3.385 8.48882 3.50617 8.69764C3.62735 8.90647 3.87999 8.96147 4.12235 9.00573C4.26543 9.02764 4.41926 9.06073 4.47426 9.11573C4.52926 9.17073 4.56234 9.32455 4.58426 9.46764C4.62809 9.70955 4.68309 9.96264 4.89235 10.0838C5.10117 10.205 5.34352 10.1169 5.57426 10.04C5.70617 9.99616 5.86043 9.94116 5.93735 9.96308C6.01426 9.98499 6.11352 10.1062 6.20117 10.205C6.36617 10.3919 6.53117 10.59 6.78426 10.59C7.03735 10.59 7.20235 10.3919 7.36735 10.205C7.45543 10.095 7.56543 9.98499 7.63117 9.96308C7.70808 9.94116 7.86235 9.99616 8.00499 10.04C8.22499 10.1169 8.47808 10.205 8.68691 10.0838C8.89573 9.96264 8.95073 9.70999 8.99499 9.46764C9.01691 9.32455 9.04999 9.17073 9.10499 9.11573C9.15999 9.06073 9.31382 9.02764 9.45691 9.00573C9.69882 8.9619 9.95191 8.9069 10.0731 8.69764C10.1943 8.48882 10.1062 8.24647 10.0293 8.01573C9.98542 7.88382 9.93042 7.72955 9.95234 7.64191C9.97425 7.56499 10.0954 7.46573 10.1943 7.37808C10.3812 7.21308 10.5793 7.04808 10.5793 6.79499C10.59 6.55308 10.4031 6.37691 10.205 6.21191H10.205ZM5.35377 6.01382C5.35377 5.63999 5.61759 5.35382 6.03568 5.35382C6.4645 5.35382 6.72877 5.65073 6.72877 6.01382C6.72877 6.37691 6.45377 6.67382 6.03568 6.67382C5.62877 6.67382 5.35377 6.37691 5.35377 6.01382ZM6.12377 8.02693H5.78259L7.4657 5.38693H7.81761L6.12377 8.02693ZM7.54299 8.08193C7.1249 8.08193 6.8499 7.79575 6.8499 7.42193C6.8499 7.0481 7.11372 6.76193 7.54299 6.76193C7.96108 6.76193 8.23607 7.05884 8.23607 7.42193C8.2249 7.78502 7.96108 8.08193 7.54299 8.08193Z" fill="white"/>
<path d="M7.54312 7.11383C7.3893 7.11383 7.2793 7.21266 7.2793 7.41074C7.2793 7.60883 7.3893 7.70765 7.54312 7.70765C7.69694 7.70765 7.80695 7.60883 7.80695 7.41074C7.80695 7.22383 7.69694 7.11383 7.54312 7.11383Z" fill="white"/>
</g>
<defs>
<clipPath id="clip0_53_132">
<rect width="14" height="14" fill="white"/>
</clipPath>
</defs>
</svg>
