<svg width="134" height="134" viewBox="0 0 134 134" fill="none" xmlns="http://www.w3.org/2000/svg">
<path d="M118.401 61.5987L62.2653 5.46798C60.6664 3.86905 58.6664 3.20238 56.4008 3.33252L22.6661 6.80132C19.1973 7.20236 16.5306 9.86905 16.1349 13.3325L12.8016 47.0672C12.5359 49.3328 13.3328 51.3328 14.8016 52.9317L31.4682 69.5984C39.0672 60.7963 50.2709 55.3331 62.8016 55.3331C82.4002 55.3331 98.9376 69.0677 103.067 87.4691L118.536 71.9997C119.87 70.6664 120.672 68.8019 120.672 66.932C120.531 64.8017 119.865 63.0675 118.401 61.5987ZM39.1986 38.2653C34.532 38.2653 30.6674 34.5309 30.6674 29.7341C30.6674 24.932 34.532 21.2029 39.1986 21.2029C43.8653 21.2029 47.7298 24.9373 47.7298 29.7341C47.735 34.5311 43.8653 38.2653 39.1986 38.2653Z" fill="#616161"/>
<path d="M62.5 63C44.0228 63 29 78.0228 29 96.5C29 114.977 44.0228 130 62.5 130C80.9772 130 96 114.977 96 96.5C96 78.0228 80.9772 63 62.5 63ZM65.602 113.354H65.321H65.1089C62.9931 113.283 61.0895 112.79 59.3951 111.944C57.5603 111.026 56.0093 109.828 54.7393 108.137C53.6814 106.798 52.9045 105.175 52.3425 103.481H47.9704V98.1196H51.2846C51.2846 97.5548 51.213 97.0617 51.213 96.4969C51.213 95.8633 51.2846 95.2985 51.2846 94.6621H47.8988V89.3726H52.2708C52.8356 87.6095 53.6814 86.1273 54.6676 84.7884C55.9377 83.1657 57.4887 81.8269 59.3235 80.9811C61.015 80.1354 62.9215 79.6422 65.0372 79.6422H65.5304C68.2798 79.7139 70.8915 80.488 73.2163 81.8297L70.7479 86.7665C69.1252 85.7086 67.2933 85.1439 65.2463 85.0034C62.5657 85.075 59.8163 86.3422 58.1937 89.3754H66.4445V94.6649H56.7112C56.6396 95.2985 56.6396 95.8633 56.6396 96.4997C56.6396 97.0645 56.7112 97.6293 56.7112 98.1224H66.4445V103.484H58.0533C59.676 106.586 62.497 107.856 65.1779 107.927C67.1532 107.856 69.0568 107.294 70.6795 106.236L73.1479 111.101C71.0349 112.509 68.354 113.286 65.602 113.354Z" fill="#3E9F38"/>
</svg>
