<svg width="134" height="134" viewBox="0 0 134 134" fill="none" xmlns="http://www.w3.org/2000/svg">
<path d="M118.401 61.5987L62.2653 5.46798C60.6664 3.86905 58.6664 3.20238 56.4008 3.33252L22.6661 6.80132C19.1973 7.20236 16.5306 9.86905 16.1349 13.3325L12.8016 47.0672C12.5359 49.3328 13.3328 51.3328 14.8016 52.9317L31.4682 69.5984C39.0672 60.7963 50.2709 55.3331 62.8016 55.3331C82.4002 55.3331 98.9376 69.0677 103.067 87.4691L118.536 71.9997C119.87 70.6664 120.672 68.8019 120.672 66.932C120.531 64.8017 119.865 63.0675 118.401 61.5987ZM39.1986 38.2653C34.532 38.2653 30.6674 34.5309 30.6674 29.7341C30.6674 24.932 34.532 21.2029 39.1986 21.2029C43.8653 21.2029 47.7298 24.9373 47.7298 29.7341C47.735 34.5311 43.8653 38.2653 39.1986 38.2653Z" fill="#616161"/>
<path fill-rule="evenodd" clip-rule="evenodd" d="M62.5 63C44.0228 63 29 78.0228 29 96.5C29 114.977 44.0228 130 62.5 130C80.9772 130 96 114.977 96 96.5C96 78.0228 80.9772 63 62.5 63ZM74.9619 103.895L81.344 110.277L81.3436 110.278C81.8433 110.777 81.8433 111.588 81.3436 112.089L77.0882 116.344C76.5869 116.844 75.7766 116.844 75.2769 116.344L68.8948 109.962C68.6546 109.722 68.5184 109.395 68.5184 109.056C68.5184 108.715 68.6546 108.39 68.8948 108.149H68.8964L70.1168 106.929L67.6344 104.446C63.6963 107.754 58.3262 108.785 53.4447 107.171C48.5632 105.555 44.8669 101.525 43.6801 96.5218C42.4934 91.5186 43.9844 86.2575 47.62 82.6203C51.2571 78.9848 56.5182 77.4937 61.5215 78.6805C66.5247 79.867 70.5544 83.5636 72.1704 88.445C73.7846 93.3262 72.7535 98.6957 69.4469 102.634L69.4461 102.633V102.635C69.4464 102.634 69.4466 102.634 69.4469 102.634L71.9286 105.116L73.149 103.895C73.3892 103.655 73.7143 103.519 74.0554 103.519C74.395 103.519 74.7217 103.655 74.9619 103.895ZM58.0986 101.901C60.4338 101.901 62.6728 100.974 64.3224 99.3224C65.9736 97.671 66.9009 95.4338 66.9009 93.0986C66.9009 90.7634 65.9736 88.526 64.3224 86.8748C62.6726 85.2236 60.4337 84.2963 58.0986 84.2963C55.765 84.2963 53.526 85.2236 51.8748 86.8748C50.2236 88.5247 49.2963 90.7634 49.2963 93.0986C49.2963 95.4338 50.2236 97.6728 51.8748 99.3224C53.5263 100.974 55.7651 101.901 58.0986 101.901Z" fill="#3E9F38"/>
</svg>
