<svg width="52" height="51" viewBox="0 0 52 51" fill="none" xmlns="http://www.w3.org/2000/svg">
<path d="M35.9 31.1291L37.8793 44.2709L26.0002 38.3295L14.1211 44.2709L16.1004 31.1291L6.74219 21.6791L19.884 19.5206L26.0012 7.72876L32.1219 19.5206L45.1719 21.6791L35.9 31.1291Z" fill="#616161"/>
<path d="M39.8585 32.2997L42.3792 48.9497C42.4706 49.6704 41.7499 50.2083 41.1207 49.8497L25.9998 42.379L10.9707 49.9376C10.3414 50.2962 9.52924 49.7583 9.71212 49.0376L12.1414 32.2994L0.349599 20.3285C-0.191805 19.7871 0.078897 18.887 0.799599 18.7992L17.4496 16.0078L25.191 1.06597C25.5496 0.43667 26.4496 0.43667 26.8118 1.06597L34.5532 16.0078L51.1996 18.7992C51.9203 18.8906 52.191 19.7906 51.6496 20.3285L39.8585 32.2997ZM37.7913 31.7583L48.8622 20.5083L33.204 17.8998L26.0005 3.77068L18.7091 17.8125L3.05086 20.421L14.1218 31.671L11.7803 47.3292L26.0012 40.3085L40.1303 47.4171L37.7913 31.7583Z" fill="#3E9F38"/>
</svg>
