<?xml version="1.0" encoding="UTF-8"?>
<svg width="96px" height="58px" viewBox="0 0 96 58" version="1.1" xmlns="http://www.w3.org/2000/svg" xmlns:xlink="http://www.w3.org/1999/xlink">
    <!-- Generator: Sketch 52.6 (67491) - http://www.bohemiancoding.com/sketch -->
    <title>tx_bwguild_domain_model_offer.1</title>
    <desc>Created with Sketch.</desc>
    <g id="Page-1" stroke="none" stroke-width="1" fill="none" fill-rule="evenodd">
        <g id="tx_bwguild_domain_model_offer.1">
            <path d="M48,38.301 C45.3008,38.301 42.6016,37.90256 40,37.1994 L17.602,30.5002 L17.602,45.8012 C17.602,48.602 19.4028,51.0004 22.102,51.8012 L31.9028,54.6996 C42.7038,57.8988 54.1018,57.8988 64.9028,54.6996 L74.7036,51.8012 C77.4028,51.00042 79.2036,48.602 79.2036,45.8012 L79.199694,30.3012 L56.000694,37.1996 C53.399094,38.00038 50.699894,38.3012 48.000694,38.3012 L48,38.301 Z" id="Path" fill="#616161"></path>
            <path d="M93.5,13.5 L54,1.801 C50.1016,0.6018 45.8984,0.6018 41.898,1.801 L2.5,13.5 C-0.1992,14.30078 -0.1992,18.1992 2.5,19 L42,30.699 C45.8984,31.8982 50.1016,31.8982 54.102,30.699 L87.903,20.699 L91.39908,19.699 L93.59828,18.99978 C96.19988,18.10134 96.19988,14.30058 93.500624,13.49978 L93.5,13.5 Z" id="Path" fill="#616161"></path>
            <path d="M87.903,23.699 L87.903,32.5974 C87.20378,32.99584 86.7038,33.699 86.7038,34.4958 L86.7038,36.8942 C86.7038,37.79264 87.2038,38.5934 88.0046,38.8942 L85.903,43.7926 C85.60222,44.49182 86.00456,45.191 86.80144,45.2926 L89.00064,45.49182 L90.30144,45.49182 L92.50064,45.2926 C93.19986,45.19104 93.60224,44.49182 93.39908,43.7926 L91.29748,38.8942 C92.09826,38.49576 92.59828,37.7926 92.59828,36.8942 L92.59828,34.4958 C92.59828,33.69502 92.09828,32.9958 91.39908,32.5974 L91.39908,22.699 L87.903,23.699 Z" id="Path" fill="#3E9F38"></path>
        </g>
    </g>
</svg>