<svg width="134" height="134" viewBox="0 0 134 134" fill="none" xmlns="http://www.w3.org/2000/svg">
<path d="M118.401 61.5987L62.2653 5.46798C60.6664 3.86905 58.6664 3.20238 56.4008 3.33252L22.6661 6.80132C19.1973 7.20236 16.5306 9.86905 16.1349 13.3325L12.8016 47.0672C12.5359 49.3328 13.3328 51.3328 14.8016 52.9317L31.4682 69.5984C39.0672 60.7963 50.2709 55.3331 62.8016 55.3331C82.4002 55.3331 98.9376 69.0677 103.067 87.4691L118.536 71.9997C119.87 70.6664 120.672 68.8019 120.672 66.932C120.531 64.8017 119.865 63.0675 118.401 61.5987ZM39.1986 38.2653C34.532 38.2653 30.6674 34.5309 30.6674 29.7341C30.6674 24.932 34.532 21.2029 39.1986 21.2029C43.8653 21.2029 47.7298 24.9373 47.7298 29.7341C47.735 34.5311 43.8653 38.2653 39.1986 38.2653Z" fill="#616161"/>
<path fill-rule="evenodd" clip-rule="evenodd" d="M29 96.5C29 78.0228 44.0228 63 62.5 63C80.9772 63 96 78.0228 96 96.5C96 114.977 80.9772 130 62.5 130C44.0228 130 29 114.977 29 96.5ZM46.3526 94.2428V112.813C46.3526 113.233 46.6831 113.563 47.1032 113.563H77.8913C78.3114 113.563 78.6419 113.233 78.6419 112.813L78.6402 94.2428H67.2547V97.8657C67.2547 98.7657 66.7221 99.576 65.8889 99.9364C65.5971 100.056 65.2965 100.116 65.0047 100.116C64.4193 100.116 63.8727 99.8977 63.4526 99.5005L62.5367 98.6462L61.4645 99.569C61.0514 99.9224 60.5276 100.116 59.9949 100.116C59.6574 100.116 59.3428 100.049 59.0422 99.9065C58.2617 99.5462 57.7449 98.7446 57.7449 97.8657V94.2428H46.3526ZM70.4047 86.848H79.7494L79.7499 86.8479C80.163 86.8479 80.5005 87.1784 80.5005 87.5967V91.9913C80.5005 92.4114 80.163 92.7419 79.7499 92.7419H65.754V97.8642C65.754 98.1648 65.5747 98.4355 65.297 98.555C65.2074 98.592 65.1019 98.6148 65.0052 98.6148C64.8189 98.6148 64.6308 98.548 64.4884 98.4127L62.5759 96.6285L60.4841 98.4355C60.2662 98.6236 59.9515 98.6763 59.6808 98.548C59.4189 98.4285 59.2466 98.1578 59.2466 97.866V92.7437H45.2507C44.8306 92.7437 44.5001 92.4132 44.5001 91.993V87.5985C44.5001 87.1784 44.8306 86.8479 45.2507 86.8479L54.5882 86.8462C53.6812 86.0815 53.0361 85.1148 52.7654 84.0794C52.4419 82.8489 52.6757 81.687 53.4175 80.794C54.1541 79.9169 55.2702 79.437 56.5833 79.437C59.1935 79.437 61.7213 81.3038 62.3505 83.6962L62.5 84.2745L62.6423 83.698C63.2714 81.3056 65.8062 79.4388 68.4095 79.4388C69.7226 79.4388 70.8476 79.9257 71.5754 80.7958C72.3172 81.6888 72.5492 82.8507 72.2275 84.0812C71.9568 85.1148 71.3117 86.0833 70.4047 86.848ZM68.4098 80.9365C66.5202 80.9365 64.5479 82.3761 64.0979 84.0794L63.3613 86.8374H66.4586C67.3903 86.8374 68.35 86.5087 69.1744 85.9005C69.9778 85.3169 70.5631 84.5066 70.7723 83.6962C70.9656 82.9544 70.8461 82.2636 70.419 81.7538C69.9778 81.2283 69.2641 80.9365 68.4098 80.9365ZM56.5743 80.9382C55.72 80.9382 54.9993 81.23 54.5651 81.7556C54.145 82.2654 54.0166 82.9544 54.2117 83.7068C54.4227 84.5154 55.0062 85.3187 55.8096 85.9111C56.6358 86.5175 57.6026 86.848 58.5254 86.848H61.6139L60.8862 84.0812C60.445 82.3779 58.4639 80.9382 56.5743 80.9382Z" fill="#3E9F38"/>
</svg>
