<svg width="100%" height="100%" viewBox="0 0 211 32" version="1.1" xmlns="http://www.w3.org/2000/svg" xmlns:xlink="http://www.w3.org/1999/xlink" xml:space="preserve" xmlns:serif="http://www.serif.com/" style="fill-rule:evenodd;clip-rule:evenodd;stroke-linejoin:round;stroke-miterlimit:2;">
    <path d="M132.502,10.07C132.502,10.469 132.402,10.868 132.102,11.167C131.802,11.466 131.402,11.565 131.002,11.565C130.602,11.565 130.202,11.466 129.902,11.167C129.602,10.868 129.502,10.469 129.502,10.07C129.502,9.672 129.602,9.273 129.902,8.974C130.202,8.675 130.602,8.575 131.002,8.575C131.402,8.575 131.802,8.675 132.102,8.974C132.402,9.273 132.502,9.572 132.502,10.07ZM129.902,31.701L129.902,14.855L132.102,14.855L132.102,31.701L129.902,31.701ZM149.302,31.701L149.302,20.736C149.302,19.341 149.102,18.244 148.602,17.447C148.102,16.649 147.202,16.25 145.902,16.25C145.102,16.25 144.402,16.45 143.702,16.849C143.002,17.247 142.502,17.746 142.002,18.344C141.502,19.041 141.202,19.739 140.902,20.636C140.602,21.534 140.502,22.53 140.502,23.527L140.502,31.601L138.302,31.601L138.302,14.855L140.502,14.855L140.502,15.852C140.502,16.151 140.502,16.55 140.402,16.849C140.402,17.247 140.302,17.546 140.302,17.845C140.302,18.144 140.202,18.443 140.202,18.742L140.302,18.742C140.802,17.447 141.502,16.45 142.602,15.652C143.702,14.855 144.902,14.456 146.402,14.456C147.402,14.456 148.202,14.556 148.802,14.855C149.402,15.154 150.002,15.553 150.402,16.051C150.802,16.55 151.102,17.148 151.202,17.746C151.402,18.443 151.502,19.141 151.502,19.839L151.502,31.601L149.302,31.601L149.302,31.701ZM163.601,31.801C163.101,31.9 162.501,31.9 162.001,31.9C161.202,31.9 160.502,31.801 160.002,31.601C159.502,31.402 159.002,31.103 158.702,30.704C158.402,30.305 158.102,29.807 158.002,29.209C157.902,28.611 157.802,27.913 157.802,27.016L157.802,16.55L153.902,16.55L153.902,14.855L157.702,14.855L157.702,9.073L159.902,8.475L159.902,14.755L165.101,14.755L165.101,16.45L159.902,16.45L159.902,25.919C159.902,26.717 159.902,27.415 160.002,27.913C160.102,28.411 160.202,28.81 160.402,29.109C160.602,29.408 160.902,29.608 161.202,29.707C161.502,29.807 162.001,29.907 162.501,29.907C163.401,29.907 164.301,29.807 165.001,29.608L165.001,31.502C164.701,31.701 164.201,31.801 163.601,31.801ZM181.501,21.334L181.501,21.833C181.501,22.032 181.501,22.231 181.401,22.53L169.901,22.53C169.801,25.222 170.201,27.215 171.201,28.411C172.201,29.608 173.701,30.206 175.701,30.206C176.601,30.206 177.501,30.106 178.401,29.907C179.301,29.707 180.001,29.408 180.601,29.109L180.801,31.003C180.001,31.302 179.201,31.601 178.301,31.701C177.401,31.9 176.401,32 175.301,32C172.801,32 170.801,31.302 169.501,29.907C168.201,28.511 167.501,26.318 167.501,23.328C167.501,22.132 167.701,20.935 168.001,19.839C168.301,18.742 168.801,17.845 169.401,17.048C170.001,16.25 170.801,15.652 171.701,15.254C172.601,14.855 173.601,14.556 174.801,14.556C176.001,14.556 176.901,14.755 177.801,15.054C178.601,15.453 179.301,15.951 179.801,16.55C180.301,17.148 180.701,17.845 181.001,18.742C181.301,19.54 181.501,20.437 181.501,21.334ZM179.201,20.736C179.201,19.341 178.801,18.244 178.101,17.447C177.301,16.55 176.301,16.151 174.901,16.151C173.601,16.151 172.601,16.55 171.801,17.347C171.001,18.144 170.401,19.341 170.201,20.736L179.201,20.736ZM194.001,16.649C192.101,16.35 190.601,16.948 189.701,18.443C188.801,19.939 188.301,22.132 188.301,25.022L188.301,31.701L186.101,31.701L186.101,14.855L188.301,14.855C188.301,15.453 188.301,16.151 188.201,16.948C188.101,17.746 188.001,18.543 187.901,19.241L188.001,19.241C188.201,18.643 188.401,17.945 188.701,17.347C189.001,16.749 189.401,16.25 189.901,15.752C190.401,15.254 191.001,14.955 191.701,14.656C192.401,14.456 193.201,14.357 194.101,14.456L194.001,16.649ZM208.8,31.701L208.8,20.736C208.8,19.341 208.6,18.244 208.1,17.447C207.6,16.649 206.7,16.25 205.4,16.25C204.6,16.25 203.9,16.45 203.2,16.849C202.5,17.247 202,17.746 201.5,18.344C201,19.041 200.7,19.739 200.4,20.636C200.1,21.534 200,22.53 200,23.527L200,31.601L197.8,31.601L197.8,14.855L200,14.855L200,15.852C200,16.151 200,16.55 199.9,16.849C199.9,17.247 199.8,17.546 199.8,17.845C199.8,18.144 199.7,18.443 199.7,18.742L199.8,18.742C200.3,17.447 201,16.45 202.1,15.652C203.2,14.855 204.4,14.456 205.9,14.456C206.9,14.456 207.7,14.556 208.3,14.855C208.9,15.154 209.5,15.553 209.9,16.051C210.3,16.55 210.6,17.148 210.7,17.746C210.9,18.443 211,19.141 211,19.839L211,31.601L208.8,31.601L208.8,31.701Z" style="fill:rgb(0,71,185);fill-rule:nonzero;"/>
    <path d="M68.299,0.024C60.499,0.324 60.199,8.298 60.199,8.298L57.699,8.298L51.599,14.578L59.899,14.578L59.899,31.523L68.999,31.523L68.999,14.578L73.199,14.578L73.199,8.298L69.199,8.298C69.199,8.298 69.199,5.108 73.299,5.308L73.299,0.722C71.299,0.124 69.799,-0.075 68.299,0.024ZM28.3,0.423L28.3,31.723L37.2,31.723L37.2,21.456L46.399,31.723L57.599,31.723L45.799,18.166L55.599,8.298L44.599,8.298L37.1,15.973L37.1,0.423L28.3,0.423ZM18,0.423L18,8.597C18,8.597 0.201,5.806 0.001,19.662C-0.099,31.225 11.5,31.623 11.6,31.623L26.7,31.623L26.7,0.423L18,0.423ZM74.898,8.198L74.898,14.578L85.098,14.578L74.098,31.523L97.898,31.523L97.898,25.443L87.698,25.443L97.898,8.198L74.898,8.198ZM14,14.678C16.1,14.678 18,15.176 18,15.176L18,24.745C18,24.745 8.4,27.337 8.4,19.961C8.3,15.674 11.4,14.777 14,14.678ZM105.498,20.06C102.198,20.06 99.598,22.652 99.598,25.941C99.598,29.231 102.198,31.823 105.498,31.823C108.797,31.823 111.397,29.231 111.397,25.941C111.397,22.652 108.697,20.06 105.498,20.06Z" style="fill:rgb(0,71,185);fill-rule:nonzero;"/>
</svg>
